<svg xmlns="http://www.w3.org/2000/svg" viewBox="0 0 103.987 230.918"><path d="M83.08 69.03c2.9-2.672 14.278 6.703 12.296 10.306-16.696 30.35-19.818 27.92-21.793 26.958-1.124-.547-1.196-4.296-5.033-8.957-1.114-1.353-2-2.123-2.72-2.666-1.678-1.27-2.43-3.61-1.726-5.473 1.543-4.09 2.677-3.6 18.976-20.164z" fill="#831523"/><path d="M89.997 39.306c-1.04-4.17-.914-7.844.278-8.21 1.192-.364 3 2.72 4.04 6.888 1.04 4.17.914 7.844-.278 8.21-1.192.364-3-2.72-4.04-6.888z" fill="#E3A47A"/><path d="M91.28 36.67c1.463-5.88 5.37-9.834 8.725-8.833 3.356 1 4.89 6.577 3.43 12.455s-5.37 9.833-8.725 8.832c-3.356-1-4.89-6.576-3.43-12.455z" fill="#E3A47A"/><path d="M90.45 43.85c1.29-3.912 11.85-3.383 11.46.71-3.294 34.483-6.152 34.45-7.8 34.892-.94.25-2.027-2.702-6.003-4.08-1.154-.4-1.99-.47-2.64-.466-1.53.012-2.702-1.4-2.726-3.32-.05-4.214.88-4.518 7.71-27.736z" fill="#831523"/><path d="M101.475 48.905c.152-1.467.305-2.982.46-4.596.39-4.11-10.203-4.64-11.498-.716-.5 1.7-.965 3.265-1.404 4.73 2.952-2.556 10.42-2.218 12.442.58z" fill="#6F1327"/><path d="M40.222 230.635l-19.008-.183c-3.716-.036-6.727-3.105-6.69-6.82l.62-64.534c.035-3.716 3.104-6.727 6.82-6.69l19.008.182c3.716.036 6.727 3.105 6.69 6.82l-.62 64.534c-.034 3.715-3.104 6.726-6.82 6.69z" fill="#0E2B47"/><path d="M74.575 230.11l-18.99.802c-3.714.157-6.88-2.752-7.037-6.465l-2.728-64.48c-.157-3.712 2.752-6.878 6.465-7.035l18.99-.803c3.714-.16 6.88 2.75 7.037 6.462l2.728 64.48c.157 3.71-2.752 6.877-6.465 7.035z" fill="#0E2B47"/><path d="M21.87 84.14c-5.2 19.44-7.584 35.923-8.76 48.165-1.61 16.74-.743 23.248 3.998 28.043 6.432 6.507 16.817 6.643 28.598 6.798 12.297.162 24.76.326 31.673-7.082 3.453-3.704 5.46-7.25 2.46-27.76-1.66-11.336-4.87-29.383-11.688-48.44-15.43.094-30.857.185-46.284.276z" fill="#831523"/><ellipse cx="45.001" cy="92.349" rx="12.125" ry="7.625" fill="#E3A47A"/><path fill="#831523" d="M53.06 107.097l-7.23-3.987 5.98-12.31 7.23 3.988"/><path fill="#7A1426" d="M41.225 102.832h8.39v64.315h-8.39z"/><path fill="#7A1426" d="M49.547 102.78l-6.75 4.76-9.62-12.24 6.75-4.758"/><path fill="#6F1327" d="M21.844 84.063L35.08 99.37l4.842-8.74m28.292-6.6l-11.53 13.487-4.81-6.927"/><circle cx="45.474" cy="105.028" r="1.789" fill="#431117"/><circle cx="45.474" cy="123.497" r="1.789" fill="#431117"/><circle cx="45.474" cy="141.966" r="1.789" fill="#431117"/><circle cx="45.474" cy="160.435" r="1.789" fill="#431117"/><path d="M14.086 126.59c-2.878 2.848-14.33-7.014-12.378-10.843 16.45-32.25 19.592-29.696 21.575-28.69 1.128.573 1.23 4.545 5.104 9.46 1.125 1.426 2.018 2.236 2.74 2.807 1.69 1.336 2.46 3.81 1.77 5.79-1.51 4.34-2.646 3.83-18.81 21.475z" fill="#831523"/><path d="M77.218 160.1c-6.87 6.72-19.252 6.572-31.47 6.426-11.707-.14-22.026-.265-28.417-6.17-2.83-2.615-4.26-5.81-4.612-11.23-.465 9.515.83 14.027 4.615 17.523 6.392 5.9 16.71 6.025 28.417 6.166 12.22.147 24.602.296 31.47-6.426 2.62-2.562 4.397-5.05 3.772-14.335-.424 4.374-1.878 6.19-3.772 8.044z" fill="#050505"/><path d="M51.583 174.31h-9.496c-.856 0-1.556-.7-1.556-1.557v-5.456c0-.856.7-1.556 1.56-1.556h9.495c.856 0 1.556.7 1.556 1.56v5.455c0 .856-.7 1.556-1.556 1.556z" fill="#686666"/><path d="M14.174 228.628c0 2.025 2.764 2.413 6.06 2.156 7.228-.563 14.49-.563 21.72 0 3.294.257 6.06-.13 6.06-2.156 0-5.01-7.576-12.092-16.92-12.092s-16.92 7.083-16.92 12.092z"/><path d="M48.013 228.628c0 2.025 2.764 2.413 6.06 2.156 7.228-.563 14.49-.563 21.72 0 3.294.257 6.06-.13 6.06-2.156 0-5.01-7.576-12.092-16.92-12.092s-16.92 7.083-16.92 12.092z"/><g fill="#E3A47A"><path d="M13.476 155.298c1.73 4.096 2.23 7.942 1.12 8.59-1.11.646-3.41-2.15-5.14-6.246s-2.23-7.942-1.12-8.59c1.11-.647 3.41 2.15 5.14 6.246z"/><path d="M12.86 158.903c-.44 6.434-3.607 11.42-7.077 11.134-3.47-.285-5.926-5.732-5.487-12.167s3.607-11.42 7.077-11.134 5.926 5.733 5.487 12.167z"/></g><path d="M12.46 151.258c-.606 4.353-11.08 6.177-11.39 1.837-2.617-36.555.2-37.165 1.745-37.993.88-.47 2.45 2.35 6.594 2.888 1.2.156 2.032.043 2.673-.11 1.5-.355 2.893.847 3.242 2.837.765 4.366-.096 4.89-2.868 30.54z" fill="#831523"/><path d="M.66 147.962c-.077 1.473-.152 2.994-.223 4.614-.18 4.122 10.642 4.08 11.75.092.42-1.725.42-3.42.788-4.908-2.87 2.712-10.107 2.886-12.316.202z" fill="#6F1327"/><path d="M75.368 38.103c1.495-.557 3.632 1.315 4.553 2.97 2.77 4.972-2.92 12.54-4.946 12.074-2.465-.565-2.955-13.795.396-15.044zm-59.5 0c-1.496-.557-3.633 1.315-4.554 2.97-2.77 4.972 2.92 12.54 4.95 12.074 2.464-.565 2.954-13.795-.397-15.044z" fill="#E3A47A"/><path d="M76.51 34.038c-.55-2.724-.185-5.515-.013-8.277.174-2.76.135-5.626-1.15-8.155-1.285-2.53-4.094-4.65-7.267-4.6.11-.227.478-.912 1.34-1.27 1.017-.425 2.308-.222 3.265.517-.89-.905-2.162-2.01-3.886-3.04-2.368-1.415-4.635-2.117-6.21-2.48 1.11-.683 3.902-2.187 7.33-1.77.65.08 1.245.22 1.774.387-.714-.63-1.825-1.48-3.365-2.2-4.27-2.003-8.537-1.465-11.265-1.12-5.46.686-9.487 2.8-11.778 4.267 1.227-2.58 4.01-4.548 7.158-5.065l1.98-.502c-.868-.218-2.117-.48-3.64-.626-3.876-.368-6.674.29-11.554 1.532 0 0-7.8 2.015-12.63 4.735-.83.467-1.572.967-1.572.967-.334.227-.64.448-.93.662-.147-.367-.405-1.158-.216-2.148.195-1.024.764-1.716 1.045-2.017-.606.15-1.635.49-2.59 1.273-1.724 1.41-1.954 3.233-1.998 3.73-.223-.222-.545-.608-.724-1.154-.34-1.03.073-1.902.213-2.166-.664.39-4.745 2.885-5.247 7.336-.236 2.093.414 3.785.88 4.723-.868 2.244-1.94 5.614-2.364 9.776-.555 5.45 1.16 8.447.987 13.02-1.583 42.334 14.093 49.39 31.337 49.39 15.676 0 27.44-10.31 29-17.637 1.437-6.743 2.68-13.53 2.847-24.634.07-4.498.13-9.026-.763-13.453z" fill="#603813"/><path d="M30.228 27.102c3.948-.724 4.803-.253 8.254-.65 8.543-.98 11.37-4.798 17.038-3.5 1.56.357 2.73.963 3.413 1.366-.53-.115-1.143-.18-1.81-.124-3.052.25-4.847 2.76-5.16 3.213 2.326-.443 14.25-2.527 20.016 3.652.87.93 1.36 1.796 1.66 2.325 2.944 5.247.09 8.49-.048 17.663-.08 5.35.85 7.066-.848 10.01-1.543 2.675-3.95 4.1-4.764 4.57-4.687 2.705-9.634 2.084-14.68 1.786-18.956-1.118-22.245.916-29.572-1.256-3.364-.996-4.688-4.616-5.207-7.787-.813-4.965-.82-10.012-.824-15.036L17.69 37.4c-.003-1.28.004-2.596.516-3.792.866-2.023 2.792-3.055 4.604-4.04 1.603-.872 3.808-1.806 7.418-2.468z" fill="#E3A47A"/><path d="M50.045 56.856s.42.45 1.1 1.283c.336.42.746.93 1.148 1.58.09.18.213.294.25.603.008.196.01.4-.047.642-.1.454-.323.87-.608 1.26-.587.767-1.39 1.423-2.304 1.998-.94.58-2.038.97-3.226 1.137-1.182.167-2.48.073-3.663-.424-.585-.225-1.17-.604-1.644-.972-.525-.423-.95-.902-1.324-1.437-.724-1.082-1.15-2.32-1.285-3.59l.01-.495c.013-.162.056-.35.09-.523.09-.336.233-.637.404-.918.355-.55.808-.966 1.21-1.367.406-.397.766-.792.957-1.222.206-.445.153-.872.04-1.406-.224-1.052-.237-2.106-.17-3.026.135-1.863.545-3.35.69-4.41.18-1.06.08-1.672.08-1.672s.17.606.07 1.69c-.08 1.075-.338 2.6-.4 4.415-.02.915.03 1.874.29 2.88.13.478.26 1.18 0 1.772-.23.602-.673 1.047-1.07 1.46-.41.414-.814.81-1.097 1.263-.133.23-.24.47-.305.716-.016.123-.05.226-.062.363l-.006.41c.132 1.127.547 2.27 1.202 3.22.32.474.715.925 1.136 1.274.484.384.93.68 1.47.903 1.04.456 2.2.562 3.292.425 1.087-.15 2.147-.46 3.024-.953.892-.507 1.682-1.102 2.247-1.777.278-.337.48-.712.59-1.07.06-.165.078-.368.084-.57.008-.088-.102-.312-.174-.46-.34-.65-.714-1.188-1.016-1.63l-.98-1.374z" fill="#8A5D3B" opacity=".6"/><circle cx="32.923" cy="41.793" r="2.615" fill="#716558"/><circle cx="32.923" cy="41.793" r="1.163"/><circle cx="59.448" cy="41.793" r="2.615" fill="#716558"/><circle cx="59.448" cy="41.793" r="1.163"/><path d="M37.628 35.722H27.425c-2.202 0-4.004 1.802-4.004 4.004v4.132c0 2.202 1.805 4.004 4.007 4.004H37.63c2.2 0 4.003-1.802 4.003-4.004v-4.132c0-2.202-1.8-4.004-4.004-4.004zm27.178 0H53.298c-1.844 0-3.352 1.508-3.352 3.352v5.437c0 1.847 1.508 3.355 3.352 3.355h11.507c1.844 0 3.352-1.508 3.352-3.352v-5.436c0-1.843-1.508-3.352-3.35-3.352z" opacity=".27" fill="#A0DAE4"/><path d="M65.714 35.636H51.36l-1.934.523c-.173.044-.352.07-.53.07h-6.173c-.144 0-.287-.017-.428-.048l-2.548-.548H26.26c-1.562 0-2.84 1.278-2.84 2.84 0 .153.092.286.222.35.542-1.57 2.035-2.71 3.784-2.71H37.63c1.343 0 1.962-.404 3.405 1.49.522.687.67-.916 1.473-.916h6.66c.842 0 .746 1.695 1.28.83.617-1.003 1.65-1.404 2.852-1.404h11.507c1.586 0 2.92 1.117 3.264 2.602.057-.068.09-.153.09-.246 0-1.56-.882-2.838-2.444-2.838z" fill="#231F20"/><path d="M25.376 35.893l-11.44 1.883c-.7.115-.54 1.092.16.977l11.032-2.08c.702-.115.95-.896.248-.78zm41.38.067l11.05 1.82c.676.11.516 1.087-.162.976L66.99 36.74c-.676-.112-.913-.89-.234-.78z"/><path d="M36.27 72.29l19.54-.512c-1.722 2.826-5.607 4.708-9.857 4.78-4.148.068-7.935-1.6-9.682-4.27z" fill="#B65D89"/><path d="M55.97 71.74c-.156-.23-19.693.26-19.857.54.25.26.928 1.02 1.368 1.433.15.14.34.21.545.206 5.258-.1 10.517-.2 15.775-.297.173-.003.344-.062.476-.176.534-.462 1.364-1.326 1.694-1.71z" fill="#DDDDDC"/></svg>