<svg xmlns="http://www.w3.org/2000/svg" viewBox="0 0 591.12 1208.84"><defs><style>.cls-1{fill:#e09d71;}.cls-2{fill:#e4b492;}.cls-3{fill:#e7b694;}.cls-4{fill:#807964;}.cls-5{fill:#e08d84;}.cls-6{fill:#d28472;}.cls-7{fill:#e0b83b;}.cls-8{fill:#da8a38;}.cls-9{fill:#070707;}.cls-10{fill:#e3a47a;}.cls-11{fill:#603813;}.cls-12{opacity:0.6;}.cls-13{fill:#8a5d3b;}.cls-14{fill:#716558;}.cls-15{fill:#a0dae4;opacity:0.27;}.cls-16{fill:#231f20;}.cls-17{fill:#b65d89;}.cls-18{fill:#dddddc;}</style></defs><g id="Layer_2" data-name="Layer 2"><g id="Layer_1-2" data-name="Layer 1"><path class="cls-1" d="M73,217.52c5.87-21.76,5.58-41.05-.64-43.08s-16,14-21.87,35.71-5.58,41,.64,43.08S67.18,239.28,73,217.52Z"/><ellipse class="cls-1" cx="34.53" cy="212.46" rx="33.21" ry="57.56" transform="translate(-41.87 11.23) rotate(-11.56)"/><path class="cls-1" d="M70.22,241.3c-6.38-20.64-61.82-18.92-60.17,2.59C23.88,425.05,38.87,425.17,47.48,427.64c4.89,1.41,10.89-14,31.88-20.79a39.53,39.53,0,0,1,13.9-2.18c8,.21,14.3-7.07,14.62-17.14.68-22.1-4.15-23.78-37.66-146.23Z"/><path class="cls-1" d="M518.08,217.52c-5.87-21.76-5.58-41.05.64-43.08s16,14,21.87,35.71,5.58,41-.64,43.08S523.94,239.28,518.08,217.52Z"/><ellipse class="cls-1" cx="556.59" cy="212.46" rx="57.56" ry="33.21" transform="translate(236.91 715.19) rotate(-78.44)"/><path class="cls-1" d="M520.9,241.3c6.38-20.64,61.82-18.92,60.17,2.59-13.83,181.16-28.82,181.28-37.43,183.75-4.89,1.41-10.89-14-31.88-20.79a39.53,39.53,0,0,0-13.9-2.18c-8,.21-14.3-7.07-14.62-17.14-.68-22.1,4.15-23.78,37.66-146.23Z"/><path class="cls-2" d="M484.77,374.09c14.94-14.3,75.54,33.72,65.51,52.82-84.53,160.83-101.14,148.4-111.6,143.55-5.95-2.75-6.7-22.41-27.29-46.47a82.57,82.57,0,0,0-14.52-13.71c-8.94-6.5-13.11-18.69-9.61-28.54,7.69-21.6,13.68-19.16,97.51-107.65Z"/><path class="cls-2" d="M106.35,374.09c-14.94-14.3-75.54,33.72-65.51,52.82C125.37,587.74,142,575.31,152.44,570.46c5.95-2.75,6.7-22.41,27.29-46.47a82.57,82.57,0,0,1,14.52-13.71c8.94-6.5,13.11-18.69,9.61-28.54-7.69-21.6-13.68-19.16-97.51-107.65Z"/><path class="cls-3" d="M297.45,1207l-157.86-1.49a6.79,6.79,0,0,1-6.7-6.82l3.83-389.43a6.78,6.78,0,0,1,6.82-6.69l157.85,1.49a6.79,6.79,0,0,1,6.7,6.82l-3.82,389.43A6.79,6.79,0,0,1,297.45,1207Z"/><path class="cls-3" d="M465,1203.4l-130.9,5.42a20.25,20.25,0,0,1-21-19.29L297.46,827.26a20.23,20.23,0,0,1,19.33-21l130.9-5.43a20.25,20.25,0,0,1,21,19.3l15.65,362.27A20.24,20.24,0,0,1,465,1203.4Z"/><path class="cls-4" d="M489.07,803.24c-1.06-16.37-22.43-29.2-47.49-28.51l-112,3.1a62.86,62.86,0,0,0-22.73,4.77c-7.88-4.45-18.08-7.18-29.25-7.25l-113.54-.71c-25.07-.16-45.79,13.12-46,29.51l-3.85,261.5c-.24,16.39,20.08,29.92,45.16,30.08l113.54.71c15.68.1,29.65-5,38-12.93,8.63,8.11,23.21,13.29,39.34,12.84l112-3.09c25.06-.7,44.69-14.66,43.63-31Z"/><path class="cls-2" d="M171.88,450.43A1496.05,1496.05,0,0,0,125.72,699.1c-8.48,86.42-3.92,120,21.06,144.78,33.9,33.59,88.63,34.3,150.71,35.1,64.8.83,130.48,1.68,166.91-36.56,18.21-19.12,28.78-37.43,13-143.32C468.62,640.57,451.7,547.4,415.78,449Z"/><path class="cls-1" d="M131.33,1196.39c0,10.45,14.57,12.46,31.93,11.13a754,754,0,0,1,114.46,0c17.36,1.33,31.93-.68,31.93-11.13,0-25.86-39.92-62.43-89.16-62.43S131.33,1170.53,131.33,1196.39Z"/><path class="cls-1" d="M309.65,1196.39c0,10.45,14.57,12.46,31.93,11.13a754,754,0,0,1,114.46,0c17.36,1.33,31.93-.68,31.93-11.13,0-25.86-39.92-62.43-89.16-62.43S309.65,1170.53,309.65,1196.39Z"/><ellipse class="cls-5" cx="220.49" cy="585.26" rx="19.31" ry="18.92"/><ellipse class="cls-6" cx="220.49" cy="585.26" rx="9.02" ry="8.84"/><ellipse class="cls-5" cx="380.22" cy="585.26" rx="19.31" ry="18.92"/><ellipse class="cls-6" cx="380.22" cy="585.26" rx="9.02" ry="8.84"/><path class="cls-7" d="M477.77,702.3c7,73,9.34,77-7.15,94.55-39.39,41.85-103.89-10.73-173.95-11.64-67.13-.88-119.79,50-156.44,13.24-21.56-21.62-16-36.59-13.48-95-39.6,27-83.17,62.3-83.17,100.93,0,85,116.19,147.5,259.53,147.5s259.52-62.47,259.52-147.5C562.63,765.21,518.39,729.47,477.77,702.3Z"/><path class="cls-7" d="M254.31,706.52c7.14-6.73,23.88-16.3,43.77-15.62,16,.54,29.26,7.53,35.38,12.63,40.18,33.44,1.48,175-33.6,176.21S215.35,743.21,254.31,706.52Z"/><path class="cls-8" d="M323.66,775.37c0,15.24-20.06,42.66-26.22,42.66-8.59,0-26.21-27.42-26.21-42.66S323.66,760.13,323.66,775.37Z"/><ellipse class="cls-9" cx="277.14" cy="742.16" rx="8.24" ry="8.07"/><ellipse class="cls-9" cx="316.71" cy="742.16" rx="8.24" ry="8.07"/><path class="cls-10" d="M449.5,204.05c7.87-2.93,19.14,6.94,24,15.65,14.59,26.21-15.39,66.09-26.08,63.64C434.42,280.36,431.84,210.63,449.5,204.05Z"/><path class="cls-10" d="M135.91,204.05c-7.87-2.93-19.14,6.94-24,15.65-14.59,26.21,15.39,66.09,26.08,63.64C151,280.36,153.57,210.63,135.91,204.05Z"/><path class="cls-11" d="M459.67,179.38c-2.9-14.35-1-29.06-.07-43.62s.71-29.66-6.06-43S432,68.27,415.24,68.53a13.72,13.72,0,0,1,7.06-6.7c5.36-2.24,12.17-1.17,17.21,2.73a101.62,101.62,0,0,0-20.48-16,114,114,0,0,0-32.72-13.07c5.84-3.6,20.57-11.52,38.64-9.32a51.09,51.09,0,0,1,9.35,2,74.62,74.62,0,0,0-17.74-11.6c-22.51-10.55-45-7.71-59.36-5.9a150.13,150.13,0,0,0-62.08,22.5c6.47-13.59,21.14-24,37.73-26.69l10.43-2.65A130.94,130.94,0,0,0,324.1.53c-20.43-1.93-35.17,1.54-60.89,8.08,0,0-41.11,10.62-66.57,25-4.38,2.47-8.28,5.11-8.28,5.11-1.76,1.19-3.38,2.36-4.89,3.48a20.06,20.06,0,0,1-1.14-11.31,21.71,21.71,0,0,1,5.51-10.63,35.17,35.17,0,0,0-13.66,6.71,28.76,28.76,0,0,0-10.52,19.66,15.63,15.63,0,0,1-3.81-6.08A14.81,14.81,0,0,1,161,29.08c-3.49,2.06-25,15.2-27.64,38.66A44.79,44.79,0,0,0,138,92.63a198.88,198.88,0,0,0-12.46,51.53c-2.92,28.72,6.11,44.51,5.21,68.6C122.36,435.87,205,473.05,295.86,473.05c82.62,0,144.62-54.33,152.84-92.94,7.57-35.54,14.12-71.3,15-129.83C464.06,226.58,464.39,202.72,459.67,179.38Z"/><path class="cls-10" d="M211.6,146.08c20.8-3.82,25.31-1.33,43.49-3.42,45-5.18,59.92-25.3,89.8-18.46a63.21,63.21,0,0,1,18,7.2,32.72,32.72,0,0,0-9.55-.65c-16.08,1.31-25.54,14.54-27.19,16.93,12.26-2.33,75.1-13.31,105.49,19.25a59.92,59.92,0,0,1,8.75,12.27c15.53,27.65.48,44.75-.24,93.09-.41,28.19,4.48,37.24-4.47,52.76-8.13,14.1-20.82,21.61-25.1,24.09-24.71,14.25-50.78,11-77.37,9.41-99.9-5.89-117.24,4.83-155.85-6.62-17.73-5.26-24.7-24.33-27.44-41.05-4.3-26.17-4.33-52.76-4.35-79.25q0-15.62,0-31.27c0-6.75,0-13.68,2.72-20,4.56-10.66,14.71-16.11,24.26-21.3C181,154.49,192.57,149.57,211.6,146.08Z"/><g class="cls-12"><path class="cls-13" d="M316,302.89s.54.6,1.54,1.74,2.48,2.81,4.27,5a76.59,76.59,0,0,1,6.06,8.33c.26.44.51.89.75,1.37.12.25.24.49.35.77a3.76,3.76,0,0,1,.15.44l0,.15s0,.25,0,.24v.19c0,.26,0,.53,0,.79s0,.61,0,.91a10.38,10.38,0,0,1-.26,1.76,17.75,17.75,0,0,1-3.2,6.62,43.87,43.87,0,0,1-12.15,10.55,35.53,35.53,0,0,1-3.87,2.09c-1.35.62-2.73,1.19-4.16,1.69a46,46,0,0,1-9,2.2A38.34,38.34,0,0,1,287,348c-.82-.11-1.65-.14-2.46-.32l-2.45-.5c-.82-.16-1.6-.49-2.4-.72a17.7,17.7,0,0,1-2.37-.88l-2.32-1c-.75-.39-1.47-.84-2.21-1.27l-1.1-.64-.14-.08-.07,0-.14-.1-.24-.18-.49-.35c-.65-.49-1.29-.91-1.95-1.46l-2-1.74c-.63-.6-1.2-1.23-1.8-1.84a35.43,35.43,0,0,1-3.18-4,42,42,0,0,1-6.84-18.92l0-1.34c0-.41,0-.93.07-1.39a15.85,15.85,0,0,1,.46-2.67,17.26,17.26,0,0,1,2.17-4.82,43.14,43.14,0,0,1,6.42-7.19C266,294.35,268,292.3,269,290a8.84,8.84,0,0,0,.73-3.54,6.94,6.94,0,0,0,0-.91,7,7,0,0,0-.13-.92l-.41-2c-.14-.68-.27-1.36-.41-2s-.19-1.41-.29-2.1-.18-1.4-.24-2.09-.07-1.36-.1-2a65.14,65.14,0,0,1,.15-7.71,121.57,121.57,0,0,1,1.82-13.22c.71-3.89,1.39-7.25,1.83-10a43.37,43.37,0,0,0,.6-6.5c0-.76-.1-1.33-.11-1.72l-.06-.6.11.59a15.88,15.88,0,0,1,.28,1.71,37.74,37.74,0,0,1,0,6.61c-.21,2.84-.61,6.26-1.07,10.17s-.91,8.32-1,13.1a64.26,64.26,0,0,0,.24,7.41l.18,1.92c.08.64.2,1.26.3,1.9s.17,1.27.32,1.93.33,1.33.49,2,.33,1.38.5,2.07a9.25,9.25,0,0,1,.21,1.17,9.71,9.71,0,0,1,.11,1.21,12.09,12.09,0,0,1-.82,4.91,15.62,15.62,0,0,1-2.51,4.22,46.14,46.14,0,0,1-3.15,3.48,39.54,39.54,0,0,0-5.73,6.66,13.05,13.05,0,0,0-2,7.8,38.07,38.07,0,0,0,6.28,17,33.68,33.68,0,0,0,2.8,3.6c.52.54,1,1.11,1.57,1.63l1.64,1.47c.56.48,1.27,1,1.9,1.44l.48.36.24.18c-.13-.09,0,0,0,0l.06,0,.12.07,1,.58c.65.37,1.28.79,1.95,1.14l2,.92a31,31,0,0,0,8.56,2.29,35.26,35.26,0,0,0,8.77,0,48.23,48.23,0,0,0,8.38-1.83c1.34-.41,2.65-.9,3.92-1.42a31.19,31.19,0,0,0,3.62-1.79,44,44,0,0,0,11.84-9.35,16,16,0,0,0,3.15-5.65,8.75,8.75,0,0,0,.31-1.45l.09-.7c0-.26,0-.53,0-.79a3.26,3.26,0,0,0-.32-1.14c-.19-.44-.4-.87-.62-1.3a88.89,88.89,0,0,0-5.33-8.6c-1.62-2.31-2.89-4.14-3.79-5.36Z"/></g><circle class="cls-14" cx="225.47" cy="223.5" r="13.78"/><circle cx="225.47" cy="223.5" r="6.13"/><circle class="cls-14" cx="365.27" cy="223.5" r="13.78"/><circle cx="365.27" cy="223.5" r="6.13"/><rect class="cls-15" x="175.73" y="191.51" width="95.98" height="63.98" rx="21.1"/><rect class="cls-15" x="315.52" y="191.51" width="95.98" height="63.98" rx="17.67"/><path class="cls-16" d="M398.62,191.05H323l-10.19,2.76a10.66,10.66,0,0,1-2.8.37H277.45a10.62,10.62,0,0,1-2.25-.24l-13.43-2.89H190.69a15,15,0,0,0-15,15h0a2.06,2.06,0,0,0,1.16,1.85,21.17,21.17,0,0,1,19.94-14.28H250.6c7.09,0,10.35-2.13,18,7.86,2.75,3.61,3.53-4.84,7.76-4.84H311.4c4.44,0,3.94,8.94,6.75,4.38,3.26-5.28,8.69-7.4,15-7.4h60.65A17.72,17.72,0,0,1,411,207.31a2,2,0,0,0,.47-1.29h0C411.5,197.79,406.85,191.05,398.62,191.05Z"/><path d="M186,192.41l-60.29,9.92a2.62,2.62,0,1,0,.85,5.15l58.13-11C188.42,195.91,189.73,191.8,186,192.41Z"/><path d="M404.11,192.76l58.23,9.59a2.61,2.61,0,1,1-.85,5.14l-56.14-10.62C401.78,196.28,400.53,192.17,404.11,192.76Z"/><path class="cls-17" d="M243.45,380.31l103-4.4c-9.08,24.31-29.55,40.5-51.95,41.11C272.61,417.62,252.66,403.26,243.45,380.31Z"/><path class="cls-18" d="M347.26,375.58c-.82-2-103.78,2.25-104.64,4.65,1.32,2.25,4.89,8.77,7.21,12.33a3.35,3.35,0,0,0,2.86,1.77l83.14-2.53a3.23,3.23,0,0,0,2.51-1.51A172,172,0,0,0,347.26,375.58Z"/></g></g></svg>