<?xml version="1.0" encoding="utf-8"?>
<!-- Generator: Adobe Illustrator 24.1.3, SVG Export Plug-In . SVG Version: 6.00 Build 0)  -->
<svg version="1.1" id="Layer_1" xmlns="http://www.w3.org/2000/svg" xmlns:xlink="http://www.w3.org/1999/xlink" x="0px" y="0px"
	 viewBox="0 0 1199.8 501" style="enable-background:new 0 0 1199.8 501;" xml:space="preserve">
<style type="text/css">
	.st0{fill:url(#SVGID_1_);}
	.st1{opacity:0.8;filter:url(#blurDos);}
	.st2{fill:#FFFFE8;}
	.st3{fill:#FFFFFF;stroke:#000000;stroke-miterlimit:10;}
	.st4{filter:url(#blurDos);}
	.st5{fill:#FFFFFF;}
	.st6{fill:none;stroke:#000000;stroke-miterlimit:10;}
	.st7{filter:url(#blurUno);}
</style>
<filter  id="blurUno">
	<feGaussianBlur  id="blur-value" stdDeviation="3"></feGaussianBlur>
</filter>
<filter  id="blurDos">
	<feGaussianBlur  stdDeviation="10"></feGaussianBlur>
</filter>
<radialGradient id="SVGID_1_" cx="1088.6" cy="399.4" r="69.4" gradientTransform="matrix(1 0 0 1 0 -290)" gradientUnits="userSpaceOnUse">
	<stop  offset="6.830000e-02" style="stop-color:#CCCCBA"/>
	<stop  offset="1" style="stop-color:#FFFFDC"/>
</radialGradient>
<circle class="st0" cx="1088.6" cy="109.4" r="69.4"/>
<g class="st1">
	<circle class="st2" cx="1088.6" cy="109.4" r="84.6"/>
</g>
<circle class="st3" cx="333.8" cy="118.3" r="2.6"/>
<circle class="st3" cx="33.7" cy="60.5" r="1.3"/>
<circle class="st3" cx="184.9" cy="46.6" r="2.6"/>
<circle class="st3" cx="236.9" cy="141.1" r="2.6"/>
<circle class="st3" cx="566.8" cy="109.2" r="1.3"/>
<circle class="st3" cx="405.9" cy="155.2" r="1.3"/>
<circle class="st3" cx="695.9" cy="115.2" r="1.3"/>
<circle class="st3" cx="649" cy="73" r="2.6"/>
<circle class="st3" cx="896.5" cy="138.5" r="1.3"/>
<circle class="st3" cx="827.3" cy="88.6" r="2.6"/>
<circle class="st3" cx="744.2" cy="43.9" r="2.6"/>
<circle class="st3" cx="440.8" cy="91.3" r="1.3"/>
<circle class="st3" cx="425" cy="39.5" r="1.3"/>
<circle class="st3" cx="296.8" cy="61.8" r="1.3"/>
<g class="st4">
	<circle class="st5" cx="488.7" cy="84.7" r="2.6"/>
	<circle class="st6" cx="488.7" cy="84.7" r="2.6"/>
</g>
<circle class="st3" cx="770" cy="204.5" r="1.3"/>
<circle class="st3" cx="629.1" cy="144.3" r="2.6"/>
<circle class="st3" cx="532.6" cy="52.8" r="2.6"/>
<g class="st4">
	<circle class="st5" cx="138.9" cy="86" r="1.3"/>
	<circle class="st6" cx="138.9" cy="86" r="1.3"/>
</g>
<g class="st7">
	<circle class="st5" cx="397.6" cy="110.5" r="1.3"/>
	<circle class="st6" cx="397.6" cy="110.5" r="1.3"/>
</g>
<circle class="st3" cx="107.7" cy="151.1" r="1.3"/>
<circle class="st3" cx="56.8" cy="184.3" r="2.6"/>
<circle class="st3" cx="11.3" cy="145.6" r="1.3"/>
<circle class="st3" cx="136.3" cy="167.9" r="2.6"/>
<circle class="st3" cx="59.5" cy="222.5" r="2.6"/>
<circle class="st3" cx="378.7" cy="215.2" r="1.3"/>
<circle class="st3" cx="229" cy="225.2" r="1.3"/>
<circle class="st3" cx="515.7" cy="165.9" r="1.3"/>
<g class="st7">
	<circle class="st5" cx="912.8" cy="48.8" r="2.6"/>
	<circle class="st6" cx="912.8" cy="48.8" r="2.6"/>
</g>
<g class="st7">
	<circle class="st5" cx="865.3" cy="54.1" r="1.3"/>
	<circle class="st6" cx="865.3" cy="54.1" r="1.3"/>
</g>
<g class="st7">
	<circle class="st5" cx="714" cy="66.5" r="2.6"/>
	<circle class="st6" cx="714" cy="66.5" r="2.6"/>
</g>
<g class="st7">
	<circle class="st5" cx="619" cy="202.9" r="2.6"/>
	<circle class="st6" cx="619" cy="202.9" r="2.6"/>
</g>
<g class="st7">
	<circle class="st5" cx="300.2" cy="185.6" r="1.3"/>
	<circle class="st6" cx="300.2" cy="185.6" r="1.3"/>
</g>
<g class="st7">
	<circle class="st5" cx="450.2" cy="187.1" r="1.3"/>
	<circle class="st6" cx="450.2" cy="187.1" r="1.3"/>
</g>
<g class="st7">
	<circle class="st5" cx="159.8" cy="224.2" r="1.3"/>
	<circle class="st6" cx="159.8" cy="224.2" r="1.3"/>
</g>
<g class="st7">
	<circle class="st5" cx="140.3" cy="213.9" r="2.6"/>
	<circle class="st6" cx="140.3" cy="213.9" r="2.6"/>
</g>
<g class="st7">
	<circle class="st5" cx="-96.6" cy="225.5" r="1.3"/>
	<circle class="st6" cx="-96.6" cy="225.5" r="1.3"/>
</g>
<g class="st7">
	<circle class="st5" cx="28.2" cy="249.4" r="2.6"/>
	<circle class="st6" cx="28.2" cy="249.4" r="2.6"/>
</g>
<g class="st7">
	<circle class="st5" cx="154.7" cy="63.5" r="2.6"/>
	<circle class="st6" cx="154.7" cy="63.5" r="2.6"/>
</g>
<g class="st7">
	<circle class="st5" cx="473.9" cy="60" r="1.3"/>
	<circle class="st6" cx="473.9" cy="60" r="1.3"/>
</g>
<g class="st7">
	<circle class="st5" cx="324.2" cy="68.2" r="1.3"/>
	<circle class="st6" cx="324.2" cy="68.2" r="1.3"/>
</g>
<g class="st7">
	<circle class="st5" cx="602.2" cy="50.1" r="1.3"/>
	<circle class="st6" cx="602.2" cy="50.1" r="1.3"/>
</g>
<image style="overflow:visible;filter:url(#blurUno);" width="8" height="8" xlink:href="2AEE0BCFC9B075D0.png"  transform="matrix(1 0 0 1 362.9605 252.9984)">
</image>
<g class="st7">
	<circle class="st5" cx="86.6" cy="134.2" r="1.3"/>
	<circle class="st6" cx="86.6" cy="134.2" r="1.3"/>
</g>
<g class="st7">
	<circle class="st5" cx="209.6" cy="165.8" r="2.6"/>
	<circle class="st6" cx="209.6" cy="165.8" r="2.6"/>
</g>
<g class="st7">
	<circle class="st5" cx="289.2" cy="216.4" r="2.6"/>
	<circle class="st6" cx="289.2" cy="216.4" r="2.6"/>
</g>
<image style="overflow:visible;filter:url(#blurUno);" width="4" height="4" xlink:href="2AEE0BCFC9B075D1.png"  transform="matrix(1 0 0 1 714.2585 256.8006)">
</image>
<image style="overflow:visible;filter:url(#blurUno);" width="4" height="4" xlink:href="2AEE0BCFC9B075D3.png"  transform="matrix(1 0 0 1 455.8803 229.66)">
</image>
<g class="st7">
	<circle class="st5" cx="748.4" cy="194.2" r="1.3"/>
	<circle class="st6" cx="748.4" cy="194.2" r="1.3"/>
</g>
<g class="st7">
	<circle class="st5" cx="701.8" cy="151.6" r="2.6"/>
	<circle class="st6" cx="701.8" cy="151.6" r="2.6"/>
</g>
<g class="st7">
	<circle class="st5" cx="844.7" cy="200.7" r="1.3"/>
	<circle class="st6" cx="844.7" cy="200.7" r="1.3"/>
</g>
<g class="st7">
	<circle class="st5" cx="719.9" cy="177.1" r="2.6"/>
	<circle class="st6" cx="719.9" cy="177.1" r="2.6"/>
</g>
<g class="st7">
	<circle class="st5" cx="797.3" cy="123.3" r="2.6"/>
	<circle class="st6" cx="797.3" cy="123.3" r="2.6"/>
</g>
<g class="st7">
	<circle class="st5" cx="478" cy="127.4" r="1.3"/>
	<circle class="st6" cx="478" cy="127.4" r="1.3"/>
</g>
<g class="st7">
	<circle class="st5" cx="627.8" cy="118.9" r="1.3"/>
	<circle class="st6" cx="627.8" cy="118.9" r="1.3"/>
</g>
<g class="st7">
	<circle class="st5" cx="340.5" cy="175.3" r="1.3"/>
	<circle class="st6" cx="340.5" cy="175.3" r="1.3"/>
</g>
<circle class="st3" cx="915.4" cy="177.1" r="1.3"/>
<circle class="st3" cx="933.4" cy="111.9" r="1.3"/>
<circle class="st3" cx="695.9" cy="175.2" r="1.3"/>
<circle class="st3" cx="675.9" cy="35.2" r="1.3"/>
<circle class="st3" cx="865.9" cy="45.2" r="1.3"/>
<circle class="st3" cx="855.9" cy="45.2" r="1.3"/>
<circle class="st3" cx="860.9" cy="65.2" r="1.3"/>
<circle class="st3" cx="845.9" cy="76.2" r="1.3"/>
<circle class="st3" cx="575.9" cy="285.2" r="2.6"/>
<circle class="st3" cx="849.8" cy="158.5" r="2.6"/>
<circle class="st3" cx="10" cy="271.4" r="2.6"/>
<circle class="st3" cx="961.8" cy="173.7" r="1.3"/>
<g class="st4">
	<circle class="st5" cx="803.9" cy="197.9" r="1.3"/>
	<circle class="st6" cx="803.9" cy="197.9" r="1.3"/>
</g>
<g class="st7">
	<circle class="st5" cx="819.6" cy="175.4" r="2.6"/>
	<circle class="st6" cx="819.6" cy="175.4" r="2.6"/>
</g>
<g class="st7">
	<circle class="st5" cx="989.1" cy="180.2" r="1.3"/>
	<circle class="st6" cx="989.1" cy="180.2" r="1.3"/>
</g>
</svg>
