<?xml version="1.0" encoding="utf-8"?>
<!-- Generator: Adobe Illustrator 24.1.3, SVG Export Plug-In . SVG Version: 6.00 Build 0)  -->
<svg version="1.1" id="Layer_1" xmlns="http://www.w3.org/2000/svg" xmlns:xlink="http://www.w3.org/1999/xlink" x="0px" y="0px"
	 viewBox="0 0 1199.8 501" style="enable-background:new 0 0 1199.8 501;" xml:space="preserve">
<style type="text/css">
	.st0{opacity:0.42;filter:url(#blurDos);}
	.st1{fill:#F6EB64;}
	.st2{opacity:0.25;filter:url(#blurDos);}
	.st3{fill:#E9F1F4;}
</style>
<filter  id="blurDos">
	<feGaussianBlur  stdDeviation="10"></feGaussianBlur>
</filter>
<g class="st0">
	<circle class="st1" cx="882" cy="122.8" r="66.7"/>
</g>
<circle class="st1" cx="882" cy="122.8" r="43.8"/>
<g class="st2">
	<path class="st3" d="M493.9,67.1c0-5.6-18.8-10.7-50.2-14.7c0.1-0.3,0.1-0.7,0.1-1c0-11.4-45.2-20.6-101-20.6
		c-41.8,0-77.7,5.2-93,12.6c-8.4,0-16.7,0.1-24.9,0.2c-6.1-4.3-17.1-7.1-29.6-7.1c-14.2,0-26.4,3.7-31.8,8.9
		c-13.4,0.6-26.2,1.4-38.2,2.2c-9.1-2.2-20.9-3.5-33.7-3.5c-28.9,0-52.4,6.6-52.5,14.8c-9.2,2.6-14.2,5.3-14.2,8.2
		c0,6.8,28.3,13,73.5,17.3c8.9,5.1,25.7,8.6,45,8.6c12.1,0,23.2-1.4,32.1-3.7c15.8,0.6,32.5,1.1,49.7,1.3c18.2,3.7,43.3,6,71,6
		c34.9,0,65.6-3.6,83.7-9.1C448.3,83.4,493.9,75.8,493.9,67.1z"/>
</g>
<g class="st2">
	<path class="st3" d="M1212,67.1c0-5.6-18.8-10.7-50.2-14.7c0.1-0.3,0.1-0.7,0.1-1c0-11.4-45.2-20.6-101-20.6
		c-41.8,0-77.7,5.2-93,12.6c-8.4,0-16.7,0.1-24.9,0.2c-6.1-4.3-17.1-7.1-29.6-7.1c-14.2,0-26.4,3.7-31.8,8.9
		c-13.4,0.6-26.2,1.4-38.2,2.2c-9.1-2.2-20.9-3.5-33.7-3.5c-28.9,0-52.4,6.6-52.5,14.8c-9.2,2.6-14.2,5.3-14.2,8.2
		c0,6.8,28.3,13,73.5,17.3c8.9,5.1,25.7,8.6,45,8.6c12.1,0,23.2-1.4,32.1-3.7c15.8,0.6,32.5,1.1,49.7,1.3c18.2,3.7,43.3,6,71,6
		c34.9,0,65.6-3.6,83.7-9.1C1166.4,83.4,1212,75.8,1212,67.1z"/>
</g>
<g class="st2">
	<path class="st3" d="M267,152.6c0,5.6,13.3,10.7,35.6,14.9c-0.1,0.3-0.1,0.7-0.1,1c-0.1,11.4,32,20.8,71.6,21
		c29.7,0.1,55.2-4.9,66.1-12.3c6,0,11.9-0.1,17.7-0.2c4.3,4.3,12.1,7.2,21,7.2c10.1,0,18.8-3.6,22.6-8.8c9.5-0.6,18.6-1.3,27.1-2.1
		c6.5,2.2,14.8,3.5,23.9,3.6c20.5,0.1,37.2-6.4,37.4-14.6c6.6-2.5,10.1-5.3,10.1-8.1c0-6.8-20-13.1-52.1-17.6
		c-6.3-5.2-18.2-8.7-31.9-8.7c-8.6,0-16.5,1.3-22.8,3.5c-11.2-0.7-23.1-1.2-35.3-1.5c-12.9-3.7-30.7-6.1-50.4-6.2
		c-24.8-0.1-46.6,3.4-59.5,8.8C299.4,136.5,267,143.9,267,152.6z"/>
</g>
</svg>
