<?xml version="1.0" encoding="utf-8"?>
<!-- Generator: Adobe Illustrator 24.1.3, SVG Export Plug-In . SVG Version: 6.00 Build 0)  -->
<svg version="1.1" id="Layer_1" xmlns="http://www.w3.org/2000/svg" xmlns:xlink="http://www.w3.org/1999/xlink" x="0px" y="0px"
	 viewBox="0 0 1199.8 501" style="enable-background:new 0 0 1199.8 501;" xml:space="preserve">
<style type="text/css">
	.st0{clip-path:url(#SVGID_2_);}
	.st1{fill:url(#SVGID_3_);}
	.st2{fill:url(#SVGID_4_);}
	.st3{fill:url(#SVGID_5_);}
	.st4{clip-path:url(#SVGID_7_);}
	.st5{fill:#A2B449;}
	.st6{fill:#A1B349;}
	.st7{fill:#A0B348;}
	.st8{fill:#9EB248;}
	.st9{fill:#9DB148;}
	.st10{fill:#9BB148;}
	.st11{fill:#9BB048;}
	.st12{fill:#9AB048;}
	.st13{fill:#99AF48;}
	.st14{fill:#98AF49;}
	.st15{fill:#97AE47;}
	.st16{fill:#95AE47;}
	.st17{fill:#95AD47;}
	.st18{fill:#93AD47;}
	.st19{fill:#92AC48;}
	.st20{fill:#91AC48;}
	.st21{fill:#90AB49;}
	.st22{fill:#8FAB49;}
	.st23{fill:#8FAA49;}
	.st24{fill:#8DAA49;}
	.st25{fill:#8CA949;}
	.st26{fill:#8BA849;}
	.st27{fill:#8AA849;}
	.st28{fill:#88A749;}
	.st29{fill:#87A749;}
	.st30{fill:#86A649;}
	.st31{fill:#85A649;}
	.st32{fill:#84A549;}
	.st33{fill:#83A549;}
	.st34{fill:#82A449;}
	.st35{fill:#81A448;}
	.st36{fill:#81A348;}
	.st37{fill:#80A448;}
	.st38{fill:#7FA248;}
	.st39{fill:#7EA248;}
	.st40{fill:#7DA148;}
	.st41{fill:#7DA248;}
	.st42{fill:#7CA148;}
	.st43{fill:#7BA148;}
	.st44{fill:#799F47;}
	.st45{fill:#789F47;}
	.st46{fill:#779E47;}
	.st47{fill:#759E47;}
	.st48{fill:#749C47;}
	.st49{fill:#749D47;}
	.st50{fill:#739C47;}
	.st51{fill:#719C46;}
	.st52{fill:#719B47;}
	.st53{fill:#709B46;}
	.st54{fill:#6F9A46;}
	.st55{fill:#6E9A46;}
	.st56{fill:#6C9946;}
	.st57{fill:#6A9846;}
	.st58{fill:#699846;}
	.st59{fill:#689746;}
	.st60{fill:#679746;}
	.st61{fill:#659647;}
	.st62{fill:#669647;}
	.st63{fill:#649547;}
	.st64{fill:#639547;}
	.st65{fill:#629447;}
	.st66{fill:#619447;}
	.st67{fill:#609347;}
	.st68{fill:#5F9347;}
	.st69{fill:#5E9247;}
	.st70{fill:#5D9247;}
	.st71{fill:#5D9147;}
	.st72{fill:#5B9147;}
	.st73{fill:#5A9047;}
	.st74{fill:#599046;}
	.st75{fill:#578F46;}
	.st76{fill:#568F46;}
	.st77{fill:#568E45;}
	.st78{fill:#558E45;}
	.st79{fill:#548D45;}
	.st80{fill:#528D45;}
	.st81{fill:#518C45;}
	.st82{fill:#508C46;}
	.st83{fill:#4E8B46;}
	.st84{fill:#4E8A46;}
	.st85{fill:#4D8B46;}
	.st86{fill:#4C8946;}
	.st87{fill:#4A8946;}
	.st88{fill:#498946;}
	.st89{fill:#488846;}
	.st90{fill:#468746;}
	.st91{fill:#458646;}
	.st92{fill:#448546;}
	.st93{fill:#428545;}
	.st94{fill:#418445;}
	.st95{fill:#3F8345;}
	.st96{fill:#3E8245;}
	.st97{fill:#3D8245;}
	.st98{fill:#3C8246;}
	.st99{fill:#3B8146;}
	.st100{fill:#3B8145;}
	.st101{fill:#398045;}
	.st102{fill:#388046;}
	.st103{fill:url(#SVGID_8_);}
	.st104{fill:url(#SVGID_9_);}
	.st105{fill:url(#SVGID_10_);}
	.st106{fill:url(#SVGID_11_);}
</style>
<g id="Layer_2_1_">
	<g id="Layer_1-2">
		<g>
			<defs>
				<rect id="SVGID_1_" width="1199.8" height="501"/>
			</defs>
			<clipPath id="SVGID_2_">
				<use xlink:href="#SVGID_1_"  style="overflow:visible;"/>
			</clipPath>
			<g class="st0">
				
					<linearGradient id="SVGID_3_" gradientUnits="userSpaceOnUse" x1="-1596.9309" y1="204.1507" x2="97.9358" y2="204.1507" gradientTransform="matrix(1 0 0 -1 798.48 818.09)">
					<stop  offset="0" style="stop-color:#A2B449"/>
					<stop  offset="1" style="stop-color:#388046"/>
				</linearGradient>
				<path class="st1" d="M873.5,519.1c17.5,3.6,36,10.7,9.9,19.9c-46.9,16.5-99.5,20.4-148.1,27.7C507.7,601,279.4,630.2,51.5,661.9
					c-224.8,31.2-450.5,68.6-677,82.9c-48.3,3.1-105.6,10.7-152.8-4.8c-25.5-8.3-25.8-25.8-6.4-43.5c34.5-31.6,80.7-50.9,122.5-68.6
					c63.3-26.8,128.8-48.1,194.7-66.3c161.1-44.5,326.6-68.4,492.5-78c165.7-9.6,332.2-4.7,498,4.4
					C638.6,494.4,759.6,495.7,873.5,519.1z"/>
				
					<linearGradient id="SVGID_4_" gradientUnits="userSpaceOnUse" x1="465.6565" y1="471.0876" x2="1236.5673" y2="471.0876" gradientTransform="matrix(1 0 0 -1 798.48 818.09)">
					<stop  offset="0" style="stop-color:#A2B449"/>
					<stop  offset="1" style="stop-color:#388046"/>
				</linearGradient>
				<path class="st2" d="M2025.6,366.5c38.4,29.3-51.7,38-64.2,39.8c-103.6,14.4-207.9,23.1-311.8,34.6
					c-101.1,11.1-206.4,29.6-308.2,21.1c-39.2-3.3-97.9-18.9-70-73.2c29.3-57.1,93.8-96.3,148.1-120.9c71-32.2,148.5-43.2,225-35.8
					c76.9,7.4,152,31.9,224.3,59.9C1920.4,312,1981.1,332.5,2025.6,366.5z"/>
				
					<linearGradient id="SVGID_5_" gradientUnits="userSpaceOnUse" x1="44.7944" y1="597.4175" x2="44.7944" y2="350.5958" gradientTransform="matrix(1 0 0 -1 798.48 818.09)">
					<stop  offset="0" style="stop-color:#70B54A"/>
					<stop  offset="1" style="stop-color:#1E2144"/>
				</linearGradient>
				<path class="st3" d="M1056.5,338.1c20.3,34.1-5.4,64.9-32.2,83.2c-52.9,36-120.5,46.8-181,46.2c-60.8-0.6-128-12.9-181-49.1
					c-26-17.8-52.8-48-32.2-81.4s60.2-55.9,92-74.6c37.2-21.9,77.9-41.3,121.2-41.8s84.1,18.5,121.2,40.5
					C996.7,280.3,1036.2,304,1056.5,338.1z"/>
				<g>
					<defs>
						<path id="SVGID_6_" d="M977.5,355.9c38.4,29.3-51.7,38-64.2,39.8c-103.5,14.4-207.9,23.1-311.8,34.6
							c-101.1,11.2-206.4,29.6-308.2,21.2c-39.1-3.3-97.9-18.9-70-73.2c29.4-57.1,93.8-96.3,148.1-120.9
							c71-32.2,148.5-43.2,225-35.8c76.9,7.4,152,31.9,224.3,59.9C872.3,301.4,932.9,321.8,977.5,355.9z"/>
					</defs>
					<clipPath id="SVGID_7_">
						<use xlink:href="#SVGID_6_"  style="overflow:visible;"/>
					</clipPath>
					<g class="st4">
						<rect x="195.1" y="214.1" class="st5" width="21" height="246.1"/>
						<rect x="216.1" y="214.1" class="st5" width="7" height="246.1"/>
						<rect x="223.1" y="214.1" class="st6" width="7" height="246.1"/>
						<rect x="230.1" y="214.1" class="st7" width="8" height="246.1"/>
						<rect x="238.1" y="214.1" class="st8" width="7" height="246.1"/>
						<rect x="245.1" y="214.1" class="st8" width="7" height="246.1"/>
						<rect x="252" y="214.1" class="st9" width="8" height="246.1"/>
						<rect x="260" y="214.1" class="st10" width="7" height="246.1"/>
						<rect x="267" y="214.1" class="st11" width="7" height="246.1"/>
						<rect x="274" y="214.1" class="st12" width="7" height="246.1"/>
						<rect x="281" y="214.1" class="st13" width="8" height="246.1"/>
						<rect x="289" y="214.1" class="st14" width="7" height="246.1"/>
						<rect x="296" y="214.1" class="st15" width="7" height="246.1"/>
						<rect x="303" y="214.1" class="st16" width="8" height="246.1"/>
						<rect x="311" y="214.1" class="st17" width="7" height="246.1"/>
						<rect x="318" y="214.1" class="st18" width="7" height="246.1"/>
						<rect x="325" y="214.1" class="st19" width="7" height="246.1"/>
						<rect x="332" y="214.1" class="st20" width="8" height="246.1"/>
						<rect x="340" y="214.1" class="st21" width="7" height="246.1"/>
						<rect x="347" y="214.1" class="st22" width="7" height="246.1"/>
						<rect x="354" y="214.1" class="st23" width="8" height="246.1"/>
						<rect x="362" y="214.1" class="st24" width="7" height="246.1"/>
						<rect x="369" y="214.1" class="st25" width="7" height="246.1"/>
						<rect x="375.9" y="214.1" class="st25" width="7" height="246.1"/>
						<rect x="382.9" y="214.1" class="st26" width="8" height="246.1"/>
						<rect x="390.9" y="214.1" class="st27" width="7" height="246.1"/>
						<rect x="397.9" y="214.1" class="st28" width="7" height="246.1"/>
						<rect x="404.9" y="214.1" class="st29" width="7" height="246.1"/>
						<rect x="411.9" y="214.1" class="st30" width="8" height="246.1"/>
						<rect x="419.9" y="214.1" class="st31" width="7" height="246.1"/>
						<rect x="426.9" y="214.1" class="st32" width="7" height="246.1"/>
						<rect x="433.9" y="214.1" class="st33" width="8" height="246.1"/>
						<rect x="441.9" y="214.1" class="st34" width="7" height="246.1"/>
						<rect x="448.9" y="214.1" class="st35" width="7" height="246.1"/>
						<rect x="455.9" y="214.1" class="st36" width="7" height="246.1"/>
						<rect x="462.9" y="214.1" class="st37" width="8" height="246.1"/>
						<rect x="470.9" y="214.1" class="st38" width="7" height="246.1"/>
						<rect x="477.8" y="214.1" class="st39" width="7" height="246.1"/>
						<rect x="484.8" y="214.1" class="st40" width="8" height="246.1"/>
						<rect x="492.8" y="214.1" class="st41" width="7" height="246.1"/>
						<rect x="499.8" y="214.1" class="st42" width="7" height="246.1"/>
						<rect x="506.8" y="214.1" class="st43" width="7" height="246.1"/>
						<rect x="513.8" y="214.1" class="st44" width="8" height="246.1"/>
						<rect x="521.8" y="214.1" class="st45" width="7" height="246.1"/>
						<rect x="528.8" y="214.1" class="st46" width="7" height="246.1"/>
						<rect x="535.8" y="214.1" class="st47" width="7" height="246.1"/>
						<rect x="542.8" y="214.1" class="st48" width="8" height="246.1"/>
						<rect x="550.8" y="214.1" class="st49" width="7" height="246.1"/>
						<rect x="557.8" y="214.1" class="st50" width="7" height="246.1"/>
						<rect x="564.8" y="214.1" class="st51" width="8" height="246.1"/>
						<rect x="572.8" y="214.1" class="st52" width="7" height="246.1"/>
						<rect x="579.8" y="214.1" class="st53" width="7" height="246.1"/>
						<rect x="586.8" y="214.1" class="st54" width="7" height="246.1"/>
						<rect x="593.8" y="214.1" class="st55" width="8" height="246.1"/>
						<rect x="601.8" y="214.1" class="st56" width="7" height="246.1"/>
						<rect x="608.8" y="214.1" class="st56" width="7" height="246.1"/>
						<rect x="615.7" y="214.1" class="st57" width="8" height="246.1"/>
						<rect x="623.7" y="214.1" class="st58" width="7" height="246.1"/>
						<rect x="630.7" y="214.1" class="st59" width="7" height="246.1"/>
						<rect x="637.7" y="214.1" class="st60" width="7" height="246.1"/>
						<rect x="644.7" y="214.1" class="st61" width="8" height="246.1"/>
						<rect x="652.7" y="214.1" class="st62" width="7" height="246.1"/>
						<rect x="659.7" y="214.1" class="st63" width="7" height="246.1"/>
						<rect x="666.7" y="214.1" class="st64" width="8" height="246.1"/>
						<rect x="674.7" y="214.1" class="st65" width="7" height="246.1"/>
						<rect x="681.7" y="214.1" class="st66" width="7" height="246.1"/>
						<rect x="688.7" y="214.1" class="st67" width="7" height="246.1"/>
						<rect x="695.7" y="214.1" class="st68" width="8" height="246.1"/>
						<rect x="703.7" y="214.1" class="st69" width="7" height="246.1"/>
						<rect x="710.7" y="214.1" class="st70" width="7" height="246.1"/>
						<rect x="717.7" y="214.1" class="st71" width="7" height="246.1"/>
						<rect x="724.7" y="214.1" class="st72" width="8" height="246.1"/>
						<rect x="732.6" y="214.1" class="st73" width="7" height="246.1"/>
						<rect x="739.6" y="214.1" class="st74" width="7" height="246.1"/>
						<rect x="746.6" y="214.1" class="st75" width="8" height="246.1"/>
						<rect x="754.6" y="214.1" class="st76" width="7" height="246.1"/>
						<rect x="761.6" y="214.1" class="st77" width="7" height="246.1"/>
						<rect x="768.6" y="214.1" class="st78" width="7" height="246.1"/>
						<rect x="775.6" y="214.1" class="st79" width="8" height="246.1"/>
						<rect x="783.6" y="214.1" class="st80" width="7" height="246.1"/>
						<rect x="790.6" y="214.1" class="st81" width="7" height="246.1"/>
						<rect x="797.6" y="214.1" class="st82" width="8" height="246.1"/>
						<rect x="805.6" y="214.1" class="st82" width="7" height="246.1"/>
						<rect x="812.6" y="214.1" class="st83" width="7" height="246.1"/>
						<rect x="819.6" y="214.1" class="st84" width="7" height="246.1"/>
						<rect x="826.6" y="214.1" class="st85" width="8" height="246.1"/>
						<rect x="834.6" y="214.1" class="st86" width="7" height="246.1"/>
						<rect x="841.6" y="214.1" class="st87" width="7" height="246.1"/>
						<rect x="848.6" y="214.1" class="st88" width="7" height="246.1"/>
						<rect x="855.5" y="214.1" class="st88" width="8" height="246.1"/>
						<rect x="863.5" y="214.1" class="st89" width="7" height="246.1"/>
						<rect x="870.5" y="214.1" class="st89" width="7" height="246.1"/>
						<rect x="877.5" y="214.1" class="st90" width="8" height="246.1"/>
						<rect x="885.5" y="214.1" class="st91" width="7" height="246.1"/>
						<rect x="892.5" y="214.1" class="st92" width="7" height="246.1"/>
						<rect x="899.5" y="214.1" class="st92" width="7" height="246.1"/>
						<rect x="906.5" y="214.1" class="st93" width="8" height="246.1"/>
						<rect x="914.5" y="214.1" class="st93" width="7" height="246.1"/>
						<rect x="921.5" y="214.1" class="st94" width="7" height="246.1"/>
						<rect x="928.5" y="214.1" class="st95" width="8" height="246.1"/>
						<rect x="936.5" y="214.1" class="st96" width="7" height="246.1"/>
						<rect x="943.5" y="214.1" class="st97" width="7" height="246.1"/>
						<rect x="950.5" y="214.1" class="st98" width="7" height="246.1"/>
						<rect x="957.5" y="214.1" class="st99" width="8" height="246.1"/>
						<rect x="965.5" y="214.1" class="st100" width="7" height="246.1"/>
						<rect x="972.4" y="214.1" class="st101" width="7" height="246.1"/>
						<rect x="979.4" y="214.1" class="st102" width="7" height="246.1"/>
						<rect x="986.4" y="214.1" class="st102" width="29" height="246.1"/>
					</g>
				</g>
				
					<linearGradient id="SVGID_8_" gradientUnits="userSpaceOnUse" x1="514.6047" y1="603.9963" x2="514.6047" y2="320.6985" gradientTransform="matrix(1 0 0 -1 798.48 818.09)">
					<stop  offset="0" style="stop-color:#77B449"/>
					<stop  offset="1" style="stop-color:#678245"/>
				</linearGradient>
				<path class="st103" d="M1884,472.6c-22.4,52.8-430.5,4.9-475.4,3.8c-88.9-2.1-177.5-18.6-265.7-27.8
					c-89.6-9.2-179.8-12.5-269.8-9.9c-29.8,0.8-59.8,3-89.5,1.3c-12.6-0.7-35.6-0.9-41.3-14.4c-6.3-14.8,12.6-34.6,21.9-44.6
					c22.9-24.5,50.7-44.2,78.5-61.7c94.6-59.4,203-94.1,311-103.1c105.8-8.8,221.4,5.9,315.2,65.4
					C1509,307.4,1909.2,413.2,1884,472.6z"/>
				
					<linearGradient id="SVGID_9_" gradientUnits="userSpaceOnUse" x1="108.2193" y1="416.17" x2="108.2193" y2="295.43" gradientTransform="matrix(1 0 0 -1 798.48 818.09)">
					<stop  offset="0" style="stop-color:#2885B1"/>
					<stop  offset="0.3" style="stop-color:#248EA8"/>
					<stop  offset="0.57" style="stop-color:#1E9B9C"/>
					<stop  offset="0.87" style="stop-color:#0676A6"/>
				</linearGradient>
				<path class="st104" d="M1602.6,456.1c-419.3,10.5-838.5,56.1-1257.8,66.5c-40.2-1.4-91.8-2.1-129-18.1
					c-11.1-4.6-1.3-9.7,4.4-12.5c15.7-7.6,37.1-9.1,54.1-11.9c52.1-8.5,104.8-14,157.3-20c50.9-5.8,101.8-11.1,152.5-18.5
					c19.6-2.9,40.3-5.1,59.2-11.1c6.1-1.9,21.7-5.4,11.7-12.5c-30.4-12.8-67.5-12.3-100.1-16.1
					C834.5,411.6,1577.2,451.2,1602.6,456.1z"/>
				
					<linearGradient id="SVGID_10_" gradientUnits="userSpaceOnUse" x1="-891.2419" y1="450.8094" x2="59.0565" y2="450.8094" gradientTransform="matrix(1 0 0 -1 798.48 818.09)">
					<stop  offset="0" style="stop-color:#A2B449"/>
					<stop  offset="1" style="stop-color:#388046"/>
				</linearGradient>
				<path class="st105" d="M845.9,391.7c47.3,36.7-63.8,47.6-79.1,49.8c-127.6,18-256.3,28.9-384.3,43.2
					c-124.6,14-254.4,37.1-380,26.5c-48.2-4.1-120.7-23.7-86.3-91.6c36.2-71.5,115.6-120.5,182.6-151.3
					c87.5-40.2,183-54.1,277.3-44.8c94.7,9.3,187.3,40,276.5,75C716.2,323.5,791,349.1,845.9,391.7z"/>
				
					<linearGradient id="SVGID_11_" gradientUnits="userSpaceOnUse" x1="-677.7109" y1="192.1036" x2="1335.9059" y2="192.1036" gradientTransform="matrix(1 0 0 -1 798.48 818.09)">
					<stop  offset="0" style="stop-color:#A2B449"/>
					<stop  offset="1" style="stop-color:#388046"/>
				</linearGradient>
				<path class="st106" d="M2111.5,493.2c17.5,5,36,15,9.9,27.9c-46.9,23-99.5,28.6-148.1,38.9c-227.6,48-774.7,88.9-1002.6,133.3
					c-224.8,43.8-450.5,96.1-677,116.2c-48.3,4.3-105.6,14.9-152.8-6.7c-25.4-11.6-25.8-36.1-6.4-60.9
					c34.6-44.4,80.7-71.3,122.6-96.2c63.3-37.6,128.8-67.4,194.7-92.9c161.1-62.3,326.6-95.9,492.5-109.3
					c165.7-13.4,332.2-6.6,498,6.2C1557.9,458.6,1997.6,460.3,2111.5,493.2z"/>
			</g>
		</g>
	</g>
</g>
</svg>
