<?xml version="1.0" encoding="utf-8"?>
<!-- Generator: Adobe Illustrator 24.1.3, SVG Export Plug-In . SVG Version: 6.00 Build 0)  -->
<svg version="1.1" id="Layer_1" xmlns="http://www.w3.org/2000/svg" xmlns:xlink="http://www.w3.org/1999/xlink" x="0px" y="0px"
	 viewBox="0 0 2078.7 1077.2" style="enable-background:new 0 0 2078.7 1077.2;" xml:space="preserve">
<style type="text/css">
	.st0{opacity:8.000000e-02;}
	.st1{fill:#FFFBDD;}
	.st2{opacity:0.8;}
	.st3{fill:#FFEE55;}
	.st4{opacity:0.5;fill:#F9B200;enable-background:new    ;}
</style>
<g class="st0">
	<polygon class="st1" points="1160.7,910.6 1160.7,920.3 2425.5,978.9 2425.5,863.8 	"/>
</g>
<g class="st0">
	<polygon class="st1" points="1201.9,903.9 1204,914.1 2436,716.2 2410.6,595.9 	"/>
</g>
<g class="st0">
	<polygon class="st1" points="1174.8,905.4 1179.4,915.9 2436,400.9 2381.1,275.8 	"/>
</g>
<g class="st0">
	<polygon class="st1" points="1182.4,936.7 1190.6,943.6 2088.3,5.4 1991.1,-77.2 	"/>
</g>
<g class="st0">
	<polygon class="st1" points="1211.1,-77.2 1096.1,-77.2 1154.6,888.7 1164.3,888.7 	"/>
</g>
<g class="st0">
	<polygon class="st1" points="-64.5,845.4 -64.5,960.5 1200.3,901.9 1200.3,892.2 	"/>
</g>
<g class="st0">
	<polygon class="st1" points="-49.6,577.4 -75.1,697.8 1157,895.7 1159.1,885.4 	"/>
</g>
<g class="st0">
	<polygon class="st1" points="-20.2,257.3 -75.1,382.4 1181.6,897.5 1186.2,887 	"/>
</g>
<g class="st0">
	<polygon class="st1" points="369.8,-95.6 272.6,-13 1170.4,925.2 1178.6,918.2 	"/>
</g>
<g class="st2">
	<circle class="st3" cx="1163.2" cy="897.5" r="179.7"/>
</g>
<ellipse transform="matrix(0.7071 -0.7071 0.7071 0.7071 -293.952 1085.3953)" class="st4" cx="1163.2" cy="897.5" rx="147.4" ry="147.4"/>
</svg>
