<svg id="Layer_1" data-name="Layer 1" xmlns="http://www.w3.org/2000/svg" viewBox="0 0 2078.7 1077.2"><defs><style>.cls-1{opacity:0.08;}.cls-2{fill:#fffbdd;}.cls-3{opacity:0.8;}.cls-4{fill:#fe5;}.cls-5{fill:#f9b200;opacity:0.5;isolation:isolate;}</style></defs><g class="cls-1"><polygon class="cls-2" points="1211.1 308.1 1096.1 308.1 1154.6 888.7 1164.3 888.7 1211.1 308.1"/></g><g class="cls-1"><polygon class="cls-2" points="30 845.4 30 960.5 1200.3 901.9 1200.3 892.2 30 845.4"/></g><g class="cls-1"><polygon class="cls-2" points="23.9 597.9 0 710.5 1157.1 895.7 1159.1 886.1 23.9 597.9"/></g><g class="cls-1"><polygon class="cls-2" points="140.3 361.2 92.7 466 1182.2 897.5 1186.2 888.7 140.3 361.2"/></g><g class="cls-1"><polygon class="cls-2" points="452.1 0 364.8 74.9 1171.2 925.2 1178.6 918.9 452.1 0"/></g><g class="cls-1"><polygon class="cls-2" points="2078.7 176.4 2003.8 89.1 1153.5 895.5 1159.8 902.9 2078.7 176.4"/></g><g class="cls-3"><circle class="cls-4" cx="1163.2" cy="897.5" r="179.7"/></g><circle class="cls-5" cx="986.31" cy="276.43" r="147.4" transform="translate(270.32 1399.49) rotate(-45)"/></svg>