<?xml version="1.0" encoding="utf-8"?>
<!-- Generator: Adobe Illustrator 24.1.3, SVG Export Plug-In . SVG Version: 6.00 Build 0)  -->
<svg version="1.1" id="Layer_1" xmlns="http://www.w3.org/2000/svg" xmlns:xlink="http://www.w3.org/1999/xlink" x="0px" y="0px"
	 viewBox="0 0 1199.8 501" style="enable-background:new 0 0 1199.8 501;" xml:space="preserve">
<style type="text/css">
	.st0{opacity:8.000000e-02;filter:url(#blurDos);}
	.st1{fill:#FFFBDD;}
	.st2{opacity:0.8;filter:url(#blurDos);}
	.st3{fill:#FFEE55;}
	.st4{opacity:0.5;fill:#F9B200;enable-background:new    ;}
</style>
<filter  id="blurDos">
	<feGaussianBlur  stdDeviation="10"></feGaussianBlur>
</filter>
<g class="st0">
	<polygon class="st1" points="1034.2,-313 919.2,-313 977.7,267.6 987.4,267.6 	"/>
</g>
<g class="st0">
	<polygon class="st1" points="-146.9,224.3 -146.9,339.4 1023.4,280.8 1023.4,271.1 	"/>
</g>
<g class="st0">
	<polygon class="st1" points="-153,-23.2 -176.9,89.4 980.2,274.6 982.2,265 	"/>
</g>
<g class="st0">
	<polygon class="st1" points="-36.6,-259.9 -84.2,-155.1 1005.3,276.4 1009.3,267.6 	"/>
</g>
<g class="st0">
	<polygon class="st1" points="275.2,-621.1 187.9,-546.2 994.3,304.1 1001.7,297.8 	"/>
</g>
<g class="st0">
	<polygon class="st1" points="1901.8,-444.7 1826.9,-532 976.6,274.4 982.9,281.8 	"/>
</g>
<g class="st2">
	<circle class="st3" cx="986.3" cy="276.4" r="179.7"/>
</g>
<ellipse transform="matrix(0.7071 -0.7071 0.7071 0.7071 93.4541 778.3964)" class="st4" cx="986.3" cy="276.4" rx="147.4" ry="147.4"/>
</svg>
