<svg id="Layer_1" data-name="Layer 1" xmlns="http://www.w3.org/2000/svg" xmlns:xlink="http://www.w3.org/1999/xlink" viewBox="0 0 469.72 635.57"><defs><style>.cls-1{fill:none;}.cls-2{fill:#5b5755;}.cls-3{fill:#3d5a7e;}.cls-4{fill:#e6aa7b;}.cls-5{fill:#1b1c2d;}.cls-6{fill:#35a8e0;}.cls-7{fill:#344d6a;}.cls-8{fill:#481a1a;}.cls-9{fill:#1a2c46;}.cls-10{fill:#12100b;}.cls-11{fill:#15130f;}.cls-12{fill:#6f6968;}.cls-13{fill:#75441c;}.cls-14{fill:#7e5120;}.cls-15{fill:#cac8c7;}.cls-16{fill:#b1b1b1;}.cls-17{fill:#e24e1b;}.cls-18{fill:#ec6923;}.cls-19{fill:#f3f2f2;}.cls-20{fill:#ec6a25;}.cls-21{fill:#fff;}.cls-22{fill:#187bbc;}.cls-23{fill:#48b0e1;}.cls-24{fill:#f1f2f4;}.cls-25{fill:#fdffff;}.cls-26{fill:#683b11;}.cls-27{opacity:0.6;}.cls-28{fill:#925f36;}.cls-29{fill:#bd5d89;}.cls-30{fill:#e5e4e4;}.cls-31{fill:#eceaea;}.cls-32{clip-path:url(#clip-path);}.cls-33{fill:#7a6a58;}.cls-34{clip-path:url(#clip-path-2);}.cls-35{fill:#b0dce8;opacity:0.27;}.cls-36{fill:#1d1d1b;}.cls-37{fill:#35322f;}</style><clipPath id="clip-path"><ellipse class="cls-1" cx="172.96" cy="125.64" rx="15.64" ry="7.73"/></clipPath><clipPath id="clip-path-2"><ellipse class="cls-1" cx="248.14" cy="124.91" rx="15.64" ry="7.73"/></clipPath></defs><title>at-desk</title><rect class="cls-2" x="79.17" y="214.99" width="252.52" height="278.26" rx="12" ry="12"/><path class="cls-3" d="M329.82,332.43c5.14,10.41-30.8,34.74-39.32,26.15-71.81-72.39-62.35-79.18-58-84,2.47-2.71,13.12.2,29.47-6.76a45.82,45.82,0,0,0,9.79-5.46c5-3.68,12.22-3.86,16.9-.32,10.26,7.76,7.94,10.55,41.15,70.35Z"/><ellipse class="cls-4" cx="399.2" cy="374.94" rx="18.63" ry="32.3" transform="translate(-112.17 571.01) rotate(-64.18)"/><path class="cls-3" d="M388.44,351.54c10.35,6.33,1.75,36.24-9.72,32.37-96.62-32.56-94.61-40.73-94.77-45.75-.09-2.86,9.11-4,15.72-14.47a22.23,22.23,0,0,0,3.11-7.25c1-4.39,5.82-6.81,11.34-5.59,12.11,2.68,12.36,5.55,74.32,40.69Z"/><path class="cls-5" d="M408,353.91a16.44,16.44,0,0,1,12.83,6.3,4.83,4.83,0,0,0-3.4-1.28,3.75,3.75,0,0,0-1.89.79c-3.2,2.27-9.47-1.31-12.78.8-2.74,1.75-2.4,6.79-2.1,11.17s.62,9.05,3.7,10.75c1.93,1.06,5,.9,10.09.62a15,15,0,0,1,2.84.15c1.54.23,2.41.36,2.51.73.3,1.05-5.28,4.82-11.78,5.12-2.14.1-6.32.29-9.65-2.36-4-3.15-4.22-8.32-4.55-15.2-.35-7.17-.61-12.38,2.95-15.39C399.88,353.46,404.53,353.72,408,353.91Z"/><path class="cls-5" d="M454.47,401a131.65,131.65,0,0,1-40.64,0,4.35,4.35,0,0,1-3-1.26,4.23,4.23,0,0,1-1.26-3l0-49.3a4.28,4.28,0,0,1,4.28-4.28,100.94,100.94,0,0,1,40.64,0,4.34,4.34,0,0,1,3,1.25,4.26,4.26,0,0,1,1.25,3l0,49.3A4.29,4.29,0,0,1,454.47,401Z"/><path class="cls-6" d="M427.35,363.36c1-1.48,1.92-3,3-4.43a13.91,13.91,0,0,1,4.92-4.25,7.08,7.08,0,0,1,9.22,2.2,16.88,16.88,0,0,1,2.89,7.13,29.22,29.22,0,0,1-1,13.86,32.81,32.81,0,0,1-3.51,8.22,16.69,16.69,0,0,1-5.61,5.81,7.61,7.61,0,0,1-7,.78,7.44,7.44,0,0,1-2.15-1.42,14.2,14.2,0,0,1-4.12-7.38,29.48,29.48,0,0,1-.16-11.31,37.56,37.56,0,0,1,4.4-12.89,17.88,17.88,0,0,1,1.34-2c.1-.15.36-.17.54-.25a1.75,1.75,0,0,1-.06.57c-.82,1.66-1.66,3.3-2.49,4.95-.07.14-.11.29-.17.44Zm.77,17.5.19-.06c.1.23.23.45.31.69a13.22,13.22,0,0,0,2.05,4.28,4.77,4.77,0,0,0,4.88,2.13,6.35,6.35,0,0,0,2.92-1.51,15.48,15.48,0,0,0,3.92-5.45,30,30,0,0,0,2.51-16.33c-.1-.79-.29-1.56-.44-2.35a1.12,1.12,0,0,0-.09.58,23.2,23.2,0,0,1-1,9.33c-.06.23-.28.4-.43.6a2.54,2.54,0,0,1-.07-.76,21.78,21.78,0,0,0,.53-8,10.45,10.45,0,0,0-1.82-4.92,3.88,3.88,0,0,0-4.47-1.77,7.85,7.85,0,0,0-2.26,1.13,12,12,0,0,0-3.33,3.71,29.61,29.61,0,0,0-4.24,21.44,11.24,11.24,0,0,0,2.64,5.6,5.16,5.16,0,0,0,6.55,1.1c-.33,0-.56.06-.79.05a9.07,9.07,0,0,1-1.57-.13,6,6,0,0,1-3.56-2.72,15.91,15.91,0,0,1-2.32-5.78C428.17,381.41,428.15,381.14,428.12,380.86Z"/><ellipse class="cls-4" cx="415.35" cy="365.39" rx="6.63" ry="13.19" transform="translate(39.86 771.63) rotate(-88.59)"/><path class="cls-7" d="M366.83,380.4c4.17,1.21,8.47,2.45,13.06,3.75,11.69,3.31,18.82-27.09,8.14-32.91h0c-4.66-2.35-8.94-4.52-12.95-6.57C380.92,354.57,376,376,366.83,380.4Z"/><path class="cls-3" d="M141.43,252.1a869.81,869.81,0,0,0-25.79,141.78c-4.73,49.27-2.18,68.42,11.77,82.54,18.93,19.15,49.5,19.56,84.18,20,36.19.48,72.88,1,93.22-20.84,10.18-10.9,16.08-21.34,7.24-81.71-4.88-33.37-14.33-86.49-34.39-142.58Z"/><ellipse class="cls-4" cx="209.51" cy="276.27" rx="35.69" ry="22.44"/><polygon class="cls-3" points="233.24 319.68 211.96 307.94 229.56 271.71 250.84 283.44 233.24 319.68"/><rect class="cls-7" x="198.4" y="307.12" width="24.7" height="189.31"/><polygon class="cls-7" points="222.9 306.98 203.03 320.98 174.71 284.95 194.58 270.95 222.9 306.98"/><polygon class="cls-7" points="141.35 251.88 180.31 296.93 194.56 271.21 141.35 251.88"/><polygon class="cls-7" points="277.84 251.78 243.36 292.43 228.93 271.52 277.84 251.78"/><circle class="cls-8" cx="210.91" cy="313.59" r="5.27"/><circle class="cls-8" cx="210.91" cy="367.95" r="5.27"/><circle class="cls-8" cx="210.91" cy="422.31" r="5.27"/><circle class="cls-8" cx="210.91" cy="476.67" r="5.27"/><rect class="cls-9" x="120.27" y="396.43" width="95.73" height="229.74" rx="6.76" ry="6.76" transform="translate(4.92 -1.59) rotate(0.55)"/><rect class="cls-9" x="215.45" y="396.43" width="95.73" height="229.74" rx="6.76" ry="6.76" transform="translate(-21.38 11.59) rotate(-2.42)"/><path class="cls-10" d="M118.33,620.52c0,6,8.14,7.1,17.84,6.34a413.45,413.45,0,0,1,63.93,0c9.7.76,17.84-.38,17.84-6.34,0-14.75-22.3-35.6-49.81-35.6S118.33,605.77,118.33,620.52Z"/><path class="cls-10" d="M217.94,620.52c0,6,8.13,7.1,17.83,6.34a413.45,413.45,0,0,1,63.93,0c9.7.76,17.84-.38,17.84-6.34,0-14.75-22.3-35.6-49.8-35.6S217.94,605.77,217.94,620.52Z"/><path class="cls-11" d="M300.8,477.68c-19.63,19.78-55,19.34-89.93,18.91-33.45-.41-62.93-.78-81.2-18.16-8.09-7.7-12.18-17.1-13.18-33.05-1.33,28,2.37,41.28,13.18,51.57,18.27,17.38,47.75,17.75,81.2,18.16,34.92.43,70.3.87,89.93-18.91,7.49-7.54,12.57-14.87,10.78-42.2C310.37,466.88,306.21,472.22,300.8,477.68Z"/><circle class="cls-8" cx="210.19" cy="478.66" r="5.27"/><rect class="cls-12" x="195.91" y="498.12" width="37.11" height="17.11" rx="1.56" ry="1.56"/><path class="cls-3" d="M106.65,379.91c-9,7.85-40.82-23.22-34.38-34.11,54.22-91.74,63-83.66,68.62-80.34,3.21,1.88,2.79,13.57,13.27,28.71a47.21,47.21,0,0,0,7.54,8.75c4.72,4.24,6.53,11.65,4.14,17.34-5.23,12.48-8.48,10.77-59.19,59.65Z"/><ellipse class="cls-3" cx="152.24" cy="444.82" rx="6.79" ry="23.72" transform="translate(-281.61 263.67) rotate(-48.44)"/><ellipse class="cls-3" cx="141.83" cy="456.24" rx="18.55" ry="34.37" transform="translate(-164.7 89.76) rotate(-22.64)"/><path class="cls-3" d="M148.08,429.77c4.07,12.28-21.22,30.71-27.68,19.66C66,356.3,72.59,351,75.6,346.83c1.71-2.39,9.53,3,21.17-.94a21.22,21.22,0,0,0,6.92-3.77c3.5-2.89,8.74-1.53,12.25,3.27,7.7,10.53,6.11,13,32.14,84.38Z"/><rect class="cls-13" y="424.1" width="469.72" height="16.44"/><rect class="cls-14" x="6.11" y="439.65" width="459.33" height="195.92"/><rect class="cls-15" x="97.43" y="302.49" width="224.41" height="121.97"/><path class="cls-16" d="M228.18,352.28a3.6,3.6,0,0,0-1.59-1c-3-4-8.44-4.56-13.17-4h0c-1-1.91-.78-4.72-1-6.84-.18-1.43-1.54-.76-2.51-.29a.28.28,0,0,0-.16.27,20.59,20.59,0,0,1,.3,7.34,14.47,14.47,0,0,0-5.14,1.62c-1.74,1-4.19,2.84-4.74,4.95l-.21.11a1.29,1.29,0,0,0-.41.36c-2.77,3.74-4.1,7.84-3,12.51,2,8.8,7.45,14.87,15.38,18.84a9,9,0,0,0,10.64-1.31,31.06,31.06,0,0,0,7.12-8.74,1.66,1.66,0,0,1-.47-.17,1.82,1.82,0,0,1-.86-2.11l0,0a2.25,2.25,0,0,1-1.14-2.17l-.18-.08a2.81,2.81,0,0,1-1.09-3.81,3,3,0,0,1,.19-.3h0a3.15,3.15,0,0,1-1.23-4.29,3,3,0,0,1,.6-.77,2.78,2.78,0,0,1,0-2.57,2.82,2.82,0,0,1,2-1.39,3.64,3.64,0,0,1,.3-.63,6.25,6.25,0,0,1,2.64-2.56A14.15,14.15,0,0,0,228.18,352.28ZM210.71,344a20.8,20.8,0,0,0-.19-2.09c-.11-.71-.47-1.38.33-1.69l1,0,0,.48a3.74,3.74,0,0,1,.09.95l.21,2.15a9.57,9.57,0,0,0,.71,3.52c-.76.1-1.56.2-2.36.32A20.87,20.87,0,0,0,210.71,344Zm-10.1,22.66c-.32,0-.7-.5-1.23-.93l1.21-1.34c.32.44.81.85.9,1.34C201.54,366,201,366.62,200.61,366.66Zm4.58,7.19a1.3,1.3,0,0,1-1.27,0c-.63-.82-.16-1.49.63-2.11C205.26,372.39,205.86,373,205.19,373.85Zm1.09-11.2c.05-.5.5-.95.79-1.42l1.32,1.21c-.48.47-.81,1.05-1.13,1S206.25,362.91,206.28,362.65Zm3.48,6.17c1.05.8,1.37,1.62.75,2.06a1.44,1.44,0,0,1-1.31,0C208.64,370.47,208.92,369.56,209.76,368.82Zm2,10.59c-.35,0-1-.59-.95-.87a4,4,0,0,1,.78-1.41l1.38,1.32C212.48,378.89,212.11,379.43,211.79,379.41Zm5.64,3.85c-.31.08-.75-.4-1.39-.79l1.21-1.47c.34.4.85.77.94,1.23C218.25,382.53,217.77,383.17,217.43,383.26ZM215,365.6a4,4,0,0,1,.73-1.44l1.36,1.18c-.47.49-.78,1.07-1.1,1.07S214.94,365.87,215,365.6Zm2.38,8c-.31.06-.73-.46-1.29-.85l1.12-1.42c.36.42.88.8,1,1.29C218.25,372.88,217.69,373.55,217.33,373.61Zm6.15,4.69c-.32.07-.77-.41-1.39-.8l1.2-1.47c.34.4.86.76,1,1.21A1.31,1.31,0,0,1,223.48,378.3Zm-2.27-11.58a4.13,4.13,0,0,1,.69-1.46c.38.4.9.76,1.07,1.23.1.31-.32.8-.66,1.54C221.75,367.4,221.2,367.05,221.21,366.72Zm3.29-6.27c-.34-.34-.91-.65-1-1s.33-.93.52-1.4l.41,0a5,5,0,0,1,.85,1.5C225.36,359.74,224.79,360.12,224.5,360.45Zm.77-9.24a11.56,11.56,0,0,1-2.43.09c-.83,0-1.66,0-2.77,0a9.46,9.46,0,0,1,2.64,6.9c-3.44-.52-5.6-2.74-7.71-5.07.16,1.51.36,2.88.43,4.27a7.31,7.31,0,0,1-.76,4.1c-3-1.67-4-4.43-4.25-7.87a14.81,14.81,0,0,1-8.69,5.54c-.24-3.23,1.4-5.35,3.31-7.37l-4.26,2.16a7.31,7.31,0,0,1,2-2.4,13,13,0,0,1,3-2.17c2.27-1.05,5.15-1.32,7.61-1.63,4.38-.54,9.4-.07,12.39,3.41A3.09,3.09,0,0,0,225.27,351.21Z"/><path class="cls-17" d="M109,324.67c-.14-.42-.14-.42.28-.56l22.79-7.85c.42-.15.42-.15.56.27-.07.07,0,.14,0,.2.2.84.41,1.68.62,2.51l1.71,6.93c.57,2.31,1.15,4.62,1.72,6.93.62,2.53,1.24,5.06,1.88,7.59a.28.28,0,0,1-.13.34L130,346.8a.74.74,0,0,1-.36.12c-3.38.2-6.77.41-10.15.63a.27.27,0,0,1-.31-.19c-.43-1-.88-2-1.32-3l-2.67-5.95c-1-2.17-1.94-4.35-2.91-6.52s-1.83-4.09-2.76-6.13A5.07,5.07,0,0,0,109,324.67Zm18,14-.1,0-3.3.22a.21.21,0,0,1-.26-.16c-.29-.64-.58-1.27-.86-1.91-.07-.16-.14-.19-.31-.13l-2.45.85c-.33.11-.32.11-.18.43.58,1.29,1.16,2.58,1.73,3.87a.42.42,0,0,0,.48.31c2.09-.15,4.18-.27,6.27-.4a.67.67,0,0,1,.17.32l.84,2.45c.07.21.13.27.33.12s.65-.45,1-.68l5.67-3.89a.3.3,0,0,0,.13-.39c-.15-.51-.28-1-.4-1.55-.23-.91-.45-1.83-.68-2.75-.17-.69-.35-1.38-.52-2.07s-.35-1.43-.52-2.14c-.12-.5-.25-1-.37-1.49-.17-.68-.33-1.36-.49-2s-.36-1.39-.53-2.08l-.69-2.8c-.13-.55-.26-1.09-.4-1.63l-.51-2.05c-.06-.24-.17-.28-.4-.2l-9,3.11c-.21.08-.27.17-.19.38.31.88.61,1.76.91,2.64l-.31.11c-2.28.79-4.55,1.58-6.84,2.35-.25.09-.25.17-.15.38.23.47.43.95.65,1.43l1.65,3.69c.49,1.08,1,2.16,1.44,3.25.13.06.24,0,.35-.06,2-.68,4-1.36,6-2.06.27-.09.37,0,.46.22C126.07,335.83,126.57,337.26,127.06,338.69Z"/><path class="cls-18" d="M122.37,325.08c-.3-.88-.6-1.76-.91-2.64-.08-.21,0-.3.19-.38l9-3.11c.23-.08.34,0,.4.2l.51,2.05c.14.54.27,1.08.4,1.63l.69,2.8c.17.69.35,1.38.53,2.08s.32,1.35.49,2c.12.5.25,1,.37,1.49.17.71.34,1.42.52,2.14s.35,1.38.52,2.07c.23.92.45,1.84.68,2.75.12.52.25,1,.4,1.55a.3.3,0,0,1-.13.39L130.4,344c-.33.23-.66.44-1,.68s-.26.09-.33-.12l-.84-2.45a.67.67,0,0,0-.17-.32l0,0,.05,0,5.32-3.64a.18.18,0,0,0,.07-.23c-.1-.38-.18-.75-.27-1.13-.32-1.29-.65-2.58-1-3.87s-.64-2.61-1-3.91c-.06-.24-.13-.29-.37-.2L124.68,331l-.25.11a0,0,0,0,0,0,0l-1-3v0l7-2.38c.14-.05.17-.12.13-.25-.22-.87-.45-1.74-.65-2.62-.05-.21-.11-.25-.32-.17l-3.7,1.28-3.45,1.2Z"/><path class="cls-19" d="M118.81,336.29c-.48-1.09-1-2.17-1.44-3.25l-1.65-3.69c-.22-.48-.42-1-.65-1.43-.1-.21-.1-.29.15-.38,2.29-.77,4.56-1.56,6.84-2.35l.31-.11v0l1,2.94v0l-4,1.38c-.11,0-.14.07-.09.19.4.87.78,1.74,1.17,2.62a.14.14,0,0,0,.21.1l3.75-1.31a0,0,0,0,1,0,0l1,2.94-.29.1-6,2.07Z"/><path class="cls-19" d="M128.13,341.78l0,0c-2.09.13-4.18.25-6.27.4a.42.42,0,0,1-.48-.31c-.57-1.29-1.15-2.58-1.73-3.87-.14-.32-.15-.32.18-.43l2.45-.85c.17-.06.24,0,.31.13.28.64.57,1.27.86,1.91a.21.21,0,0,0,.26.16l3.3-.22.1,0v0Z"/><path class="cls-20" d="M118.81,336.29l.35-.11,6-2.07.29-.1,3.32-1.14c.24-.09.32-.05.38.2.27,1.14.55,2.27.84,3.4a.28.28,0,0,1-.14.36c-.93.62-1.86,1.26-2.78,1.89v0c-.49-1.43-1-2.86-1.47-4.3-.09-.26-.19-.31-.46-.22-2,.7-4,1.38-6,2.06C119.05,336.27,118.94,336.35,118.81,336.29Z"/><path class="cls-21" d="M127.07,338.72c.92-.63,1.85-1.27,2.78-1.89a.28.28,0,0,0,.14-.36c-.29-1.13-.57-2.26-.84-3.4-.06-.25-.14-.29-.38-.2L125.45,334l-1-2.94.25-.11,6.33-2.18c.24-.09.31,0,.37.2.31,1.3.63,2.6,1,3.91s.65,2.58,1,3.87c.09.38.17.75.27,1.13a.18.18,0,0,1-.07.23l-5.32,3.64-.05,0Z"/><path class="cls-21" d="M123.39,328l-1-2.94,3.45-1.2,3.7-1.28c.21-.08.27,0,.32.17.2.88.43,1.75.65,2.62,0,.13,0,.2-.13.25Z"/><path class="cls-17" d="M124.42,331l-3.75,1.31a.14.14,0,0,1-.21-.1c-.39-.88-.77-1.75-1.17-2.62-.05-.12,0-.16.09-.19l4-1.38Z"/><path class="cls-22" d="M283,371l.34-.89.7.25,28,10.58c.81.31.81.31.42,1.11q-3.25,6.69-6.49,13.37-3.5,7.2-7,14.43a.62.62,0,0,1-.7.39c-4.18-.4-8.38-.78-12.57-1.17a.84.84,0,0,1-.48-.16q-5.14-3.79-10.31-7.56a.39.39,0,0,1-.18-.48c.63-2.2,1.23-4.41,1.85-6.62.91-3.26,1.84-6.51,2.75-9.77,1.05-3.75,2.11-7.5,3.14-11.26A8.07,8.07,0,0,0,283,371Zm10.06,18c-1.33-.5-2.67-1-4-1.5-.3-.11-.43-.08-.52.25q-.39,1.49-.84,2.94c-.13.41,0,.58.39.72,1.19.42,2.37.9,3.55,1.35l-2.2,5.82c-1.22-.76-2.34-1.68-3.52-2.49-.19-.12-.16-.28-.11-.46.23-.78.42-1.56.67-2.34.09-.29.05-.43-.26-.54-1-.36-2-.74-3-1.13-.31-.12-.41-.06-.5.27q-.69,2.6-1.46,5.18a.54.54,0,0,0,.25.7q3.21,2.34,6.42,4.71c-.45,1.17-.87,2.35-1.35,3.5-.21.51,0,.58.41.62q4.79.42,9.56.88a.79.79,0,0,0,.92-.57c.56-1.26,1.17-2.51,1.78-3.76.81-1.68,1.63-3.35,2.44-5,.57-1.17,1.12-2.35,1.69-3.52q1.21-2.48,2.42-5c.43-.88.86-1.77,1.28-2.66.63-1.29,1.25-2.59,1.89-3.88.16-.34.08-.49-.27-.63q-5.56-2.09-11.13-4.21c-.33-.12-.47-.06-.59.27-.36,1-.75,2-1.13,3l-.6-.2c-2.73-1-5.45-2.05-8.16-3.1-.36-.13-.53-.11-.64.29-.28,1.11-.59,2.22-.89,3.32.08.2.28.21.43.27l7.75,2.93a.9.9,0,0,0,.51.12l.18.09Z"/><path class="cls-23" d="M295.93,381.55c.38-1,.77-2,1.13-3,.12-.33.26-.39.59-.27q5.57,2.12,11.13,4.21c.35.14.43.29.27.63-.64,1.29-1.26,2.59-1.89,3.88-.42.89-.85,1.78-1.28,2.66q-1.2,2.49-2.42,5c-.57,1.17-1.12,2.35-1.69,3.52-.81,1.67-1.63,3.34-2.44,5-.61,1.25-1.22,2.5-1.78,3.76a.79.79,0,0,1-.92.57q-4.77-.47-9.56-.88c-.44,0-.62-.11-.41-.62.48-1.15.9-2.33,1.35-3.5v-.05l.2.05c2.49.22,5,.43,7.47.69a.82.82,0,0,0,1-.62c.39-.9.84-1.79,1.27-2.67q1.45-3,2.93-6c.78-1.62,1.57-3.23,2.35-4.85.62-1.28,1.22-2.57,1.83-3.86,0-.05,0-.08-.05-.09-1.63-.63-3.25-1.26-4.88-1.87l-4.25-1.58Z"/><path class="cls-24" d="M288,402.48q-3.21-2.37-6.42-4.71a.54.54,0,0,1-.25-.7q.77-2.58,1.46-5.18c.09-.33.19-.39.5-.27,1,.39,2,.77,3,1.13.31.11.35.25.26.54-.25.78-.44,1.56-.67,2.34-.05.18-.08.34.11.46,1.18.81,2.3,1.73,3.52,2.49l0,0L288,402.43Z"/><path class="cls-24" d="M285.64,381.86c.3-1.1.61-2.21.89-3.32.11-.4.28-.42.64-.29,2.71,1.05,5.43,2.07,8.16,3.1l.6.2,0,.05-1.36,3.62,0,0-.18-.09c-.2-.08-.39-.18-.58-.25Z"/><path class="cls-23" d="M289.48,398.58l2.2-5.82a.14.14,0,0,1,0-.06c.18.08.35.18.53.24,1.15.44,2.3.89,3.46,1.31.38.14.54.23.3.68-.63,1.21-1.2,2.47-1.78,3.71a.59.59,0,0,1-.7.38c-1.35-.16-2.7-.27-4.05-.4Z"/><path class="cls-23" d="M293.1,389l1.41-3.73,0,0a1.11,1.11,0,0,0,.19.09c1.51.58,3,1.16,4.54,1.72.3.11.44.22.27.56-.49,1-1,2-1.43,2.94-.13.28-.28.28-.54.19-1-.39-2-.78-3-1.14a5.94,5.94,0,0,0-1.49-.5Z"/><path class="cls-24" d="M291.68,392.76c-1.18-.45-2.36-.93-3.55-1.35-.39-.14-.52-.31-.39-.72q.45-1.45.84-2.94c.09-.33.22-.36.52-.25,1.33.51,2.67,1,4,1.5l0,.08c-.46,1.21-.91,2.42-1.37,3.62A.14.14,0,0,0,291.68,392.76Z"/><path class="cls-23" d="M285.64,381.86l8.11,3.07c.19.07.38.17.58.25a.9.9,0,0,1-.51-.12l-7.75-2.93C285.92,382.07,285.72,382.06,285.64,381.86Z"/><path class="cls-25" d="M291.7,392.7c.46-1.2.91-2.41,1.37-3.62a5.94,5.94,0,0,1,1.49.5c1,.36,2,.75,3,1.14.26.09.41.09.54-.19.46-1,.94-2,1.43-2.94.17-.34,0-.45-.27-.56-1.52-.56-3-1.14-4.54-1.72a1.11,1.11,0,0,1-.19-.09l1.36-3.62,4.25,1.58c1.63.61,3.25,1.24,4.88,1.87l.05.09c-.61,1.29-1.21,2.58-1.83,3.86-.78,1.62-1.57,3.23-2.35,4.85q-1.47,3-2.93,6c-.43.88-.88,1.77-1.27,2.67a.82.82,0,0,1-1,.62c-2.49-.26-5-.47-7.47-.69l-.2-.05,1.44-3.81c1.35.13,2.7.24,4.05.4a.59.59,0,0,0,.7-.38c.58-1.24,1.15-2.5,1.78-3.71.24-.45.08-.54-.3-.68-1.16-.42-2.31-.87-3.46-1.31C292.05,392.88,291.88,392.78,291.7,392.7Z"/><path class="cls-24" d="M305.08,385.14l-.05-.09C305.09,385.06,305.1,385.09,305.08,385.14Z"/><path class="cls-4" d="M297.82,112.15c4.4-1.63,10.69,3.88,13.4,8.74,8.15,14.64-8.6,36.92-14.56,35.55C289.4,154.77,288,115.83,297.82,112.15Z"/><path class="cls-4" d="M122.68,112.15c-4.4-1.63-10.69,3.88-13.4,8.74-8.15,14.64,8.6,36.92,14.57,35.55C131.1,154.77,132.54,115.83,122.68,112.15Z"/><path class="cls-26" d="M301.19,100.19c-1.62-8-.55-16.24-.05-24.36s.4-16.57-3.38-24-12.05-13.68-21.39-13.54a7.71,7.71,0,0,1,3.94-3.74,9.89,9.89,0,0,1,9.62,1.53,57.17,57.17,0,0,0-11.44-9,63.65,63.65,0,0,0-18.28-7.3c3.26-2,11.49-6.43,21.58-5.2A28.62,28.62,0,0,1,287,15.73a42,42,0,0,0-9.9-6.48C264.54,3.36,252,5,244,6a83.89,83.89,0,0,0-34.67,12.56c3.62-7.59,11.81-13.38,21.07-14.9l5.83-1.48A71.49,71.49,0,0,0,225.46.3c-11.4-1.08-19.64.85-34,4.51,0,0-23,5.93-37.18,13.94-2.45,1.37-4.63,2.85-4.63,2.85-1,.66-1.88,1.31-2.73,1.94a11.3,11.3,0,0,1-.64-6.31,12.11,12.11,0,0,1,3.08-5.94A19.52,19.52,0,0,0,141.74,15a16.07,16.07,0,0,0-5.88,11,8.52,8.52,0,0,1-2.13-3.39,8.26,8.26,0,0,1,.63-6.38c-2,1.15-14,8.49-15.44,21.59a25,25,0,0,0,2.59,13.91,110.41,110.41,0,0,0-7,28.77c-1.63,16,3.41,24.86,2.91,38.32-4.67,124.61,41.48,145.37,92.23,145.37,46.15,0,80.77-30.34,85.37-51.91,4.23-19.84,7.89-39.82,8.37-72.51C303.63,126.55,303.82,113.22,301.19,100.19Z"/><path class="cls-4" d="M165,79.77c11.62-2.13,14.14-.74,24.3-1.91,25.14-2.89,33.46-14.12,50.15-10.3a35.07,35.07,0,0,1,10,4,18.1,18.1,0,0,0-5.33-.37c-9,.73-14.26,8.13-15.18,9.46,6.84-1.3,41.94-7.44,58.91,10.75a33.89,33.89,0,0,1,4.89,6.85c8.67,15.45.27,25-.13,52-.24,15.75,2.5,20.81-2.5,29.47-4.54,7.88-11.63,12.07-14,13.45-13.8,8-28.36,6.14-43.21,5.26-55.8-3.29-65.48,2.7-87.05-3.7-9.9-2.93-13.79-13.59-15.32-22.92-2.4-14.62-2.42-29.47-2.43-44.26q0-8.73,0-17.47c0-3.77,0-7.64,1.52-11.16,2.55-6,8.22-9,13.55-11.89C147.84,84.47,154.33,81.72,165,79.77Z"/><g class="cls-27"><path class="cls-28" d="M223.28,167.35c1.55,1.85,3.06,3.73,4.47,5.69a32.17,32.17,0,0,1,2,3c.15.27.29.53.42.82a4.72,4.72,0,0,1,.16.45,4,4,0,0,1,0,.49,5.67,5.67,0,0,1,0,.92l-.18.91a10.79,10.79,0,0,1-1.72,3.25,20.89,20.89,0,0,1-2.52,2.63,28.73,28.73,0,0,1-6.07,4,23.73,23.73,0,0,1-14.28,2,19,19,0,0,1-6.77-2.78,19.34,19.34,0,0,1-5.19-5.17,21.83,21.83,0,0,1-3-6.66,20.72,20.72,0,0,1-.68-3.61,8.82,8.82,0,0,1,.61-3.7c.93-2.37,2.86-4.05,4.52-5.74a13.63,13.63,0,0,0,2.22-2.72,6,6,0,0,0,.82-3.27c-.14-1.12-.45-2.32-.67-3.52l-.24-1.81-.11-1.81a46.17,46.17,0,0,1,.37-7.25c.3-2.39.72-4.77,1.1-7.14a23.69,23.69,0,0,0,.41-7.17,23.52,23.52,0,0,1-.22,7.2c-.32,2.38-.68,4.77-.91,7.16a46.43,46.43,0,0,0-.26,7.17l.14,1.79.27,1.77c.23,1.16.54,2.3.72,3.57a6.54,6.54,0,0,1-.85,3.64,14.39,14.39,0,0,1-2.31,2.87c-1.68,1.71-3.5,3.35-4.34,5.53a7.89,7.89,0,0,0-.54,3.37,20.64,20.64,0,0,0,.67,3.47,21.53,21.53,0,0,0,3,6.42,19,19,0,0,0,5,5,18.32,18.32,0,0,0,6.5,2.7A23.45,23.45,0,0,0,219.53,189a28.48,28.48,0,0,0,6-3.86,20.68,20.68,0,0,0,2.51-2.53,10.58,10.58,0,0,0,1.69-3.09c1-2.38-.91-4.41-2.13-6.4S224.78,169.24,223.28,167.35Z"/></g><path class="cls-10" d="M150.67,105.65,117,111.19a1.46,1.46,0,1,0,.47,2.88L149.94,108C152,107.61,152.74,105.31,150.67,105.65Z"/><path class="cls-10" d="M272.47,105.85,305,111.2a1.46,1.46,0,1,1-.47,2.88l-31.36-5.94C271.17,107.81,270.47,105.52,272.47,105.85Z"/><path class="cls-29" d="M182.74,212.78l57.52-1.5c-5.07,8.31-16.51,13.85-29,14.06C199,225.55,187.88,220.63,182.74,212.78Z"/><path class="cls-30" d="M240.72,211.16c-.45-.67-58,.77-58.44,1.6.74.76,2.73,3,4,4.21a2.26,2.26,0,0,0,1.6.61l46.43-.87a2.24,2.24,0,0,0,1.41-.51A62.92,62.92,0,0,0,240.72,211.16Z"/><ellipse class="cls-31" cx="172.96" cy="125.64" rx="15.64" ry="7.73"/><g class="cls-32"><circle class="cls-33" cx="172.96" cy="128.59" r="7.18"/><circle class="cls-10" cx="172.96" cy="128.59" r="3.19"/></g><ellipse class="cls-31" cx="248.14" cy="124.91" rx="15.64" ry="7.73"/><g class="cls-34"><circle class="cls-33" cx="248.14" cy="127.85" r="7.18"/><circle class="cls-10" cx="248.14" cy="127.85" r="3.19"/></g><rect class="cls-35" x="144.92" y="105.15" width="53.6" height="35.74" rx="11.79" ry="11.79"/><rect class="cls-35" x="222.99" y="105.15" width="53.6" height="35.74" rx="9.87" ry="9.87"/><path class="cls-36" d="M269.41,104.89H227.15l-5.69,1.54a5.87,5.87,0,0,1-1.56.21H201.73a6,6,0,0,1-1.26-.13l-7.5-1.62h-39.7a8.38,8.38,0,0,0-8.35,8.36h0a1.15,1.15,0,0,0,.65,1,11.81,11.81,0,0,1,11.13-8h30c4,0,5.78-1.19,10,4.39,1.54,2,2-2.7,4.33-2.7h19.6c2.48,0,2.2,5,3.77,2.44,1.82-3,4.86-4.13,8.4-4.13h33.87a9.9,9.9,0,0,1,9.61,7.66,1.15,1.15,0,0,0,.26-.72h0C276.6,108.65,274,104.89,269.41,104.89Z"/><rect class="cls-37" x="300.61" y="100.64" width="25.13" height="74.11" rx="3.28" ry="3.28"/><rect class="cls-37" x="96.89" y="100.64" width="25.13" height="74.11" rx="3.28" ry="3.28"/><path class="cls-37" d="M254,24.47H172.63c-71-1.25-64.56,91.55-64.56,91.55a34,34,0,0,0,5.33,18.12c0-.62-.11-1.23-.11-1.86,0,0,1.17-96.25,59.34-94.57H254c65.12,2,57.65,94.57,57.65,94.57,0,.63-4.86,1.08-4.9,1.7,3.39-5.41,10.11-11.42,10.11-18C316.9,116,334,24.13,254,24.47Z"/></svg>