<?xml version="1.0" encoding="utf-8"?>
<!-- Generator: Adobe Illustrator 19.1.0, SVG Export Plug-In . SVG Version: 6.00 Build 0)  -->
<svg version="1.1" id="Layer_1" xmlns="http://www.w3.org/2000/svg" xmlns:xlink="http://www.w3.org/1999/xlink" x="0px" y="0px"
	 viewBox="0 0 800 600" style="enable-background:new 0 0 800 600;" xml:space="preserve">
<style type="text/css">
	.st0{clip-path:url(#SVGID_2_);}
	.st1{fill:url(#SVGID_3_);}
	.st2{fill:url(#SVGID_4_);}
	.st3{fill:url(#SVGID_5_);}
	.st4{clip-path:url(#SVGID_7_);fill:#A2B54A;}
	.st5{clip-path:url(#SVGID_7_);fill:#A1B44A;}
	.st6{clip-path:url(#SVGID_7_);fill:#A0B44A;}
	.st7{clip-path:url(#SVGID_7_);fill:#9FB34A;}
	.st8{clip-path:url(#SVGID_7_);fill:#9EB34A;}
	.st9{clip-path:url(#SVGID_7_);fill:#9DB24A;}
	.st10{clip-path:url(#SVGID_7_);fill:#9CB24A;}
	.st11{clip-path:url(#SVGID_7_);fill:#9BB14A;}
	.st12{clip-path:url(#SVGID_7_);fill:#9AB14A;}
	.st13{clip-path:url(#SVGID_7_);fill:#99B04A;}
	.st14{clip-path:url(#SVGID_7_);fill:#98B04A;}
	.st15{clip-path:url(#SVGID_7_);fill:#97AF49;}
	.st16{clip-path:url(#SVGID_7_);fill:#96AF49;}
	.st17{clip-path:url(#SVGID_7_);fill:#95AE49;}
	.st18{clip-path:url(#SVGID_7_);fill:#94AE49;}
	.st19{clip-path:url(#SVGID_7_);fill:#93AD49;}
	.st20{clip-path:url(#SVGID_7_);fill:#92AD49;}
	.st21{clip-path:url(#SVGID_7_);fill:#91AC49;}
	.st22{clip-path:url(#SVGID_7_);fill:#90AC49;}
	.st23{clip-path:url(#SVGID_7_);fill:#8FAB49;}
	.st24{clip-path:url(#SVGID_7_);fill:#8EAB49;}
	.st25{clip-path:url(#SVGID_7_);fill:#8DAA49;}
	.st26{clip-path:url(#SVGID_7_);fill:#8CAA49;}
	.st27{clip-path:url(#SVGID_7_);fill:#8BA949;}
	.st28{clip-path:url(#SVGID_7_);fill:#8AA949;}
	.st29{clip-path:url(#SVGID_7_);fill:#89A849;}
	.st30{clip-path:url(#SVGID_7_);fill:#88A849;}
	.st31{clip-path:url(#SVGID_7_);fill:#87A749;}
	.st32{clip-path:url(#SVGID_7_);fill:#86A749;}
	.st33{clip-path:url(#SVGID_7_);fill:#85A649;}
	.st34{clip-path:url(#SVGID_7_);fill:#84A649;}
	.st35{clip-path:url(#SVGID_7_);fill:#83A549;}
	.st36{clip-path:url(#SVGID_7_);fill:#82A548;}
	.st37{clip-path:url(#SVGID_7_);fill:#81A448;}
	.st38{clip-path:url(#SVGID_7_);fill:#80A448;}
	.st39{clip-path:url(#SVGID_7_);fill:#7FA348;}
	.st40{clip-path:url(#SVGID_7_);fill:#7EA348;}
	.st41{clip-path:url(#SVGID_7_);fill:#7DA248;}
	.st42{clip-path:url(#SVGID_7_);fill:#7CA248;}
	.st43{clip-path:url(#SVGID_7_);fill:#7BA148;}
	.st44{clip-path:url(#SVGID_7_);fill:#7AA148;}
	.st45{clip-path:url(#SVGID_7_);fill:#79A048;}
	.st46{clip-path:url(#SVGID_7_);fill:#78A048;}
	.st47{clip-path:url(#SVGID_7_);fill:#779F48;}
	.st48{clip-path:url(#SVGID_7_);fill:#769F48;}
	.st49{clip-path:url(#SVGID_7_);fill:#759E48;}
	.st50{clip-path:url(#SVGID_7_);fill:#749E48;}
	.st51{clip-path:url(#SVGID_7_);fill:#739D48;}
	.st52{clip-path:url(#SVGID_7_);fill:#729D48;}
	.st53{clip-path:url(#SVGID_7_);fill:#719C48;}
	.st54{clip-path:url(#SVGID_7_);fill:#709C48;}
	.st55{clip-path:url(#SVGID_7_);fill:#6F9B48;}
	.st56{clip-path:url(#SVGID_7_);fill:#6E9B48;}
	.st57{clip-path:url(#SVGID_7_);fill:#6C9A47;}
	.st58{clip-path:url(#SVGID_7_);fill:#6B9A47;}
	.st59{clip-path:url(#SVGID_7_);fill:#6A9947;}
	.st60{clip-path:url(#SVGID_7_);fill:#699947;}
	.st61{clip-path:url(#SVGID_7_);fill:#689847;}
	.st62{clip-path:url(#SVGID_7_);fill:#679847;}
	.st63{clip-path:url(#SVGID_7_);fill:#669747;}
	.st64{clip-path:url(#SVGID_7_);fill:#659747;}
	.st65{clip-path:url(#SVGID_7_);fill:#649647;}
	.st66{clip-path:url(#SVGID_7_);fill:#639647;}
	.st67{clip-path:url(#SVGID_7_);fill:#629547;}
	.st68{clip-path:url(#SVGID_7_);fill:#619547;}
	.st69{clip-path:url(#SVGID_7_);fill:#609447;}
	.st70{clip-path:url(#SVGID_7_);fill:#5F9447;}
	.st71{clip-path:url(#SVGID_7_);fill:#5E9347;}
	.st72{clip-path:url(#SVGID_7_);fill:#5D9347;}
	.st73{clip-path:url(#SVGID_7_);fill:#5C9247;}
	.st74{clip-path:url(#SVGID_7_);fill:#5B9247;}
	.st75{clip-path:url(#SVGID_7_);fill:#5A9147;}
	.st76{clip-path:url(#SVGID_7_);fill:#599147;}
	.st77{clip-path:url(#SVGID_7_);fill:#589047;}
	.st78{clip-path:url(#SVGID_7_);fill:#579046;}
	.st79{clip-path:url(#SVGID_7_);fill:#568F46;}
	.st80{clip-path:url(#SVGID_7_);fill:#558F46;}
	.st81{clip-path:url(#SVGID_7_);fill:#548E46;}
	.st82{clip-path:url(#SVGID_7_);fill:#538E46;}
	.st83{clip-path:url(#SVGID_7_);fill:#528D46;}
	.st84{clip-path:url(#SVGID_7_);fill:#518D46;}
	.st85{clip-path:url(#SVGID_7_);fill:#508C46;}
	.st86{clip-path:url(#SVGID_7_);fill:#4F8C46;}
	.st87{clip-path:url(#SVGID_7_);fill:#4E8B46;}
	.st88{clip-path:url(#SVGID_7_);fill:#4D8B46;}
	.st89{clip-path:url(#SVGID_7_);fill:#4C8A46;}
	.st90{clip-path:url(#SVGID_7_);fill:#4B8A46;}
	.st91{clip-path:url(#SVGID_7_);fill:#4A8946;}
	.st92{clip-path:url(#SVGID_7_);fill:#498946;}
	.st93{clip-path:url(#SVGID_7_);fill:#488846;}
	.st94{clip-path:url(#SVGID_7_);fill:#478846;}
	.st95{clip-path:url(#SVGID_7_);fill:#468746;}
	.st96{clip-path:url(#SVGID_7_);fill:#458746;}
	.st97{clip-path:url(#SVGID_7_);fill:#448646;}
	.st98{clip-path:url(#SVGID_7_);fill:#438646;}
	.st99{clip-path:url(#SVGID_7_);fill:#428545;}
	.st100{clip-path:url(#SVGID_7_);fill:#418545;}
	.st101{clip-path:url(#SVGID_7_);fill:#408445;}
	.st102{clip-path:url(#SVGID_7_);fill:#3F8445;}
	.st103{clip-path:url(#SVGID_7_);fill:#3E8345;}
	.st104{clip-path:url(#SVGID_7_);fill:#3D8345;}
	.st105{clip-path:url(#SVGID_7_);fill:#3C8245;}
	.st106{clip-path:url(#SVGID_7_);fill:#3B8245;}
	.st107{clip-path:url(#SVGID_7_);fill:#3A8145;}
	.st108{clip-path:url(#SVGID_7_);fill:#398145;}
	.st109{clip-path:url(#SVGID_7_);fill:#388045;}
	.st110{fill:url(#SVGID_8_);}
	.st111{fill:url(#SVGID_9_);}
	.st112{fill:url(#SVGID_10_);}
	.st113{fill:url(#SVGID_11_);}
</style>
<g>
	<defs>
		<rect id="SVGID_1_" x="-413" width="1600" height="392.9"/>
	</defs>
	<clipPath id="SVGID_2_">
		<use xlink:href="#SVGID_1_"  style="overflow:visible;"/>
	</clipPath>
	<g class="st0">
		<linearGradient id="SVGID_3_" gradientUnits="userSpaceOnUse" x1="-1315.3982" y1="407.2985" x2="380.9292" y2="407.2985">
			<stop  offset="0" style="stop-color:#A2B54A"/>
			<stop  offset="1" style="stop-color:#388045"/>
		</linearGradient>
		<path class="st1" d="M358,318.3c17.5,3.4,36.1,10.1,9.9,18.7c-47,15.4-99.6,19.2-148.3,26c-227.8,32.1-456.3,59.6-684.5,89.3
			c-225,29.3-450.9,64.4-677.6,77.9c-48.3,2.9-105.7,10-152.9-4.5c-25.5-7.8-25.8-24.2-6.4-40.8c34.6-29.7,80.8-47.8,122.7-64.4
			c63.4-25.2,128.9-45.2,194.9-62.3c161.3-41.8,326.9-64.2,492.9-73.2c165.8-9,332.4-4.4,498.4,4.1C122.9,295.1,244,296.3,358,318.3
			z"/>
	</g>
	<g class="st0">
		<linearGradient id="SVGID_4_" gradientUnits="userSpaceOnUse" x1="748.9385" y1="156.7513" x2="1520.494" y2="156.7513">
			<stop  offset="0" style="stop-color:#A2B54A"/>
			<stop  offset="1" style="stop-color:#388045"/>
		</linearGradient>
		<path class="st2" d="M1511,175.1c38.4,27.5-51.8,35.7-64.2,37.3c-103.6,13.5-208.1,21.7-312.1,32.4
			c-101.2,10.5-206.6,27.8-308.5,19.9c-39.2-3.1-98-17.8-70.1-68.7c29.4-53.6,93.9-90.4,148.2-113.5c71-30.2,148.6-40.6,225.1-33.6
			c76.9,7,152.1,30,224.5,56.3C1405.7,123.9,1466.5,143.1,1511,175.1z"/>
	</g>
	<g class="st0">
		<linearGradient id="SVGID_5_" gradientUnits="userSpaceOnUse" x1="327.7438" y1="38.145" x2="327.7438" y2="269.8398">
			<stop  offset="1.346983e-03" style="stop-color:#71B64A"/>
			<stop  offset="1" style="stop-color:#202045"/>
		</linearGradient>
		<path class="st3" d="M541.1,148.4c20.3,32.1-5.4,61-32.2,78.1c-52.9,33.8-120.5,43.9-181.1,43.4c-60.8-0.6-128.1-12.1-181.1-46.1
			c-26.1-16.7-52.8-45-32.2-76.4c20.5-31.3,60.2-52.4,92.1-70c37.3-20.5,78-38.8,121.3-39.2c43.3-0.4,84.1,17.3,121.3,38
			C481.3,94.1,520.8,116.4,541.1,148.4z"/>
	</g>
	<g class="st0">
		<g>
			<g>
				<defs>
					<path id="SVGID_6_" d="M462,165.1c38.4,27.5-51.8,35.7-64.2,37.3c-103.6,13.5-208.1,21.7-312.1,32.4
						c-101.2,10.5-206.6,27.8-308.5,19.9c-39.2-3.1-98-17.8-70.1-68.7c29.4-53.6,93.9-90.4,148.2-113.5C-73.5,42.3,4,31.9,80.6,38.8
						c76.9,7,152.1,30,224.5,56.3C356.7,113.9,417.5,133.1,462,165.1z"/>
				</defs>
				<clipPath id="SVGID_7_">
					<use xlink:href="#SVGID_6_"  style="overflow:visible;"/>
				</clipPath>
				<rect x="-321" y="32" class="st4" width="21" height="231"/>
				<rect x="-300" y="32" class="st4" width="7" height="231"/>
				<rect x="-293" y="32" class="st5" width="7" height="231"/>
				<rect x="-286" y="32" class="st6" width="8" height="231"/>
				<rect x="-278" y="32" class="st7" width="7" height="231"/>
				<rect x="-271" y="32" class="st8" width="7" height="231"/>
				<rect x="-264" y="32" class="st9" width="8" height="231"/>
				<rect x="-256" y="32" class="st10" width="7" height="231"/>
				<rect x="-249" y="32" class="st11" width="7" height="231"/>
				<rect x="-242" y="32" class="st12" width="7" height="231"/>
				<rect x="-235" y="32" class="st13" width="8" height="231"/>
				<rect x="-227" y="32" class="st14" width="7" height="231"/>
				<rect x="-220" y="32" class="st15" width="7" height="231"/>
				<rect x="-213" y="32" class="st16" width="8" height="231"/>
				<rect x="-205" y="32" class="st17" width="7" height="231"/>
				<rect x="-198" y="32" class="st18" width="7" height="231"/>
				<rect x="-191" y="32" class="st19" width="7" height="231"/>
				<rect x="-184" y="32" class="st20" width="8" height="231"/>
				<rect x="-176" y="32" class="st21" width="7" height="231"/>
				<rect x="-169" y="32" class="st22" width="7" height="231"/>
				<rect x="-162" y="32" class="st23" width="8" height="231"/>
				<rect x="-154" y="32" class="st24" width="7" height="231"/>
				<rect x="-147" y="32" class="st25" width="7" height="231"/>
				<rect x="-140" y="32" class="st26" width="7" height="231"/>
				<rect x="-133" y="32" class="st27" width="8" height="231"/>
				<rect x="-125" y="32" class="st28" width="7" height="231"/>
				<rect x="-118" y="32" class="st29" width="7" height="231"/>
				<rect x="-111" y="32" class="st30" width="7" height="231"/>
				<rect x="-104" y="32" class="st31" width="8" height="231"/>
				<rect x="-96" y="32" class="st32" width="7" height="231"/>
				<rect x="-89" y="32" class="st33" width="7" height="231"/>
				<rect x="-82" y="32" class="st34" width="8" height="231"/>
				<rect x="-74" y="32" class="st35" width="7" height="231"/>
				<rect x="-67" y="32" class="st36" width="7" height="231"/>
				<rect x="-60" y="32" class="st37" width="7" height="231"/>
				<rect x="-53" y="32" class="st38" width="8" height="231"/>
				<rect x="-45" y="32" class="st39" width="7" height="231"/>
				<rect x="-38" y="32" class="st40" width="7" height="231"/>
				<rect x="-31" y="32" class="st41" width="8" height="231"/>
				<rect x="-23" y="32" class="st42" width="7" height="231"/>
				<rect x="-16" y="32" class="st43" width="7" height="231"/>
				<rect x="-9" y="32" class="st44" width="7" height="231"/>
				<rect x="-2" y="32" class="st45" width="8" height="231"/>
				<rect x="6" y="32" class="st46" width="7" height="231"/>
				<rect x="13" y="32" class="st47" width="7" height="231"/>
				<rect x="20" y="32" class="st48" width="7" height="231"/>
				<rect x="27" y="32" class="st49" width="8" height="231"/>
				<rect x="35" y="32" class="st50" width="7" height="231"/>
				<rect x="42" y="32" class="st51" width="7" height="231"/>
				<rect x="49" y="32" class="st52" width="8" height="231"/>
				<rect x="57" y="32" class="st53" width="7" height="231"/>
				<rect x="64" y="32" class="st54" width="7" height="231"/>
				<rect x="71" y="32" class="st55" width="7" height="231"/>
				<rect x="78" y="32" class="st56" width="8" height="231"/>
				<rect x="86" y="32" class="st57" width="7" height="231"/>
				<rect x="93" y="32" class="st58" width="7" height="231"/>
				<rect x="100" y="32" class="st59" width="8" height="231"/>
				<rect x="108" y="32" class="st60" width="7" height="231"/>
				<rect x="115" y="32" class="st61" width="7" height="231"/>
				<rect x="122" y="32" class="st62" width="7" height="231"/>
				<rect x="129" y="32" class="st63" width="8" height="231"/>
				<rect x="137" y="32" class="st64" width="7" height="231"/>
				<rect x="144" y="32" class="st65" width="7" height="231"/>
				<rect x="151" y="32" class="st66" width="8" height="231"/>
				<rect x="159" y="32" class="st67" width="7" height="231"/>
				<rect x="166" y="32" class="st68" width="7" height="231"/>
				<rect x="173" y="32" class="st69" width="7" height="231"/>
				<rect x="180" y="32" class="st70" width="8" height="231"/>
				<rect x="188" y="32" class="st71" width="7" height="231"/>
				<rect x="195" y="32" class="st72" width="7" height="231"/>
				<rect x="202" y="32" class="st73" width="7" height="231"/>
				<rect x="209" y="32" class="st74" width="8" height="231"/>
				<rect x="217" y="32" class="st75" width="7" height="231"/>
				<rect x="224" y="32" class="st76" width="7" height="231"/>
				<rect x="231" y="32" class="st77" width="8" height="231"/>
				<rect x="239" y="32" class="st78" width="7" height="231"/>
				<rect x="246" y="32" class="st79" width="7" height="231"/>
				<rect x="253" y="32" class="st80" width="7" height="231"/>
				<rect x="260" y="32" class="st81" width="8" height="231"/>
				<rect x="268" y="32" class="st82" width="7" height="231"/>
				<rect x="275" y="32" class="st83" width="7" height="231"/>
				<rect x="282" y="32" class="st84" width="8" height="231"/>
				<rect x="290" y="32" class="st85" width="7" height="231"/>
				<rect x="297" y="32" class="st86" width="7" height="231"/>
				<rect x="304" y="32" class="st87" width="7" height="231"/>
				<rect x="311" y="32" class="st88" width="8" height="231"/>
				<rect x="319" y="32" class="st89" width="7" height="231"/>
				<rect x="326" y="32" class="st90" width="7" height="231"/>
				<rect x="333" y="32" class="st91" width="7" height="231"/>
				<rect x="340" y="32" class="st92" width="8" height="231"/>
				<rect x="348" y="32" class="st93" width="7" height="231"/>
				<rect x="355" y="32" class="st94" width="7" height="231"/>
				<rect x="362" y="32" class="st95" width="8" height="231"/>
				<rect x="370" y="32" class="st96" width="7" height="231"/>
				<rect x="377" y="32" class="st97" width="7" height="231"/>
				<rect x="384" y="32" class="st98" width="7" height="231"/>
				<rect x="391" y="32" class="st99" width="8" height="231"/>
				<rect x="399" y="32" class="st100" width="7" height="231"/>
				<rect x="406" y="32" class="st101" width="7" height="231"/>
				<rect x="413" y="32" class="st102" width="8" height="231"/>
				<rect x="421" y="32" class="st103" width="7" height="231"/>
				<rect x="428" y="32" class="st104" width="7" height="231"/>
				<rect x="435" y="32" class="st105" width="7" height="231"/>
				<rect x="442" y="32" class="st106" width="8" height="231"/>
				<rect x="450" y="32" class="st107" width="7" height="231"/>
				<rect x="457" y="32" class="st108" width="7" height="231"/>
				<rect x="464" y="32" class="st109" width="7" height="231"/>
				<rect x="471" y="32" class="st109" width="29" height="231"/>
			</g>
		</g>
	</g>
	<g class="st0">
		<linearGradient id="SVGID_8_" gradientUnits="userSpaceOnUse" x1="797.9478" y1="31.9697" x2="797.9478" y2="297.9088">
			<stop  offset="0" style="stop-color:#77B54A"/>
			<stop  offset="1" style="stop-color:#668345"/>
		</linearGradient>
		<path class="st110" d="M1369.4,274.7c-22.5,49.6-430.9,4.6-475.8,3.6c-88.9-2-177.6-17.5-265.9-26.1
			c-89.7-8.7-179.8-11.6-270.1-9.3c-29.8,0.8-59.8,2.8-89.6,1.2c-12.6-0.7-35.6-0.8-41.3-13.5c-6.3-13.8,12.6-32.5,21.9-41.9
			c22.9-22.9,50.7-41.5,78.5-57.9c94.6-55.8,203.1-88.3,311.3-96.7c105.9-8.3,221.6,5.5,315.4,61.4
			C994,119.6,1394.6,218.9,1369.4,274.7z"/>
	</g>
	<g class="st0">
		<linearGradient id="SVGID_9_" gradientUnits="userSpaceOnUse" x1="391.2267" y1="208.3284" x2="391.2267" y2="321.6267">
			<stop  offset="0" style="stop-color:#2986B1"/>
			<stop  offset="0.3" style="stop-color:#248FA8"/>
			<stop  offset="0.5674" style="stop-color:#1E9C9D"/>
			<stop  offset="0.8652" style="stop-color:#0075A6"/>
		</linearGradient>
		<path class="st111" d="M1087.7,259.2c-419.6,9.8-839.2,52.6-1258.8,62.5c-40.2-1.3-91.9-2-129.1-17c-11.1-4.3-1.3-9.1,4.4-11.7
			c15.8-7.1,37.1-8.6,54.2-11.2c52.2-8,104.9-13.2,157.5-18.7c50.9-5.4,101.9-10.4,152.6-17.4c19.6-2.7,40.3-4.8,59.3-10.4
			c6.1-1.8,21.8-5.1,11.7-11.7c-30.4-12-67.6-11.6-100.2-15.1C318.9,217.3,1062.3,254.6,1087.7,259.2z"/>
	</g>
	<g class="st0">
		<linearGradient id="SVGID_10_" gradientUnits="userSpaceOnUse" x1="-618.0616" y1="192.7518" x2="153.494" y2="192.7518">
			<stop  offset="0" style="stop-color:#A2B54A"/>
			<stop  offset="1" style="stop-color:#388045"/>
		</linearGradient>
		<path class="st112" d="M144,211.1c38.4,27.5-51.8,35.7-64.2,37.3c-103.6,13.5-208.1,21.7-312.1,32.4
			c-101.2,10.5-206.6,27.8-308.5,19.9c-39.2-3.1-98-17.8-70.1-68.7c29.4-53.6,93.9-90.4,148.2-113.5c71-30.2,148.6-40.6,225.1-33.6
			c76.9,7,152.1,30,224.5,56.3C38.7,159.9,99.5,179.1,144,211.1z"/>
	</g>
	<g class="st0">
		<linearGradient id="SVGID_11_" gradientUnits="userSpaceOnUse" x1="-395.3975" y1="418.6217" x2="1619.9299" y2="418.6217">
			<stop  offset="0" style="stop-color:#A2B54A"/>
			<stop  offset="1" style="stop-color:#388045"/>
		</linearGradient>
		<path class="st113" d="M1597,294c17.5,4.7,36.1,14.1,9.9,26.2c-47,21.6-99.6,26.9-148.3,36.5c-227.8,45-775.3,83.5-1003.5,125.2
			C230.3,522.8,4.3,572-222.3,590.8c-48.3,4-105.7,14-152.9-6.3c-25.5-10.9-25.8-33.9-6.4-57.2c34.6-41.6,80.8-67,122.7-90.3
			c63.4-35.3,128.9-63.3,194.9-87.2c161.3-58.5,326.9-90,492.9-102.6c165.8-12.6,332.4-6.2,498.4,5.8
			C1042.9,261.5,1483,263.1,1597,294z"/>
	</g>
</g>
</svg>
